<?xml version="1.0" encoding="UTF-8"?>
<!DOCTYPE svg PUBLIC "-//W3C//DTD SVG 1.1//EN" "http://www.w3.org/Graphics/SVG/1.1/DTD/svg11.dtd">
<!-- Creator: CorelDRAW -->
<svg xmlns="http://www.w3.org/2000/svg" xml:space="preserve" width="8.5in" height="11in" version="1.1" style="shape-rendering:geometricPrecision; text-rendering:geometricPrecision; image-rendering:optimizeQuality; fill-rule:evenodd; clip-rule:evenodd"
viewBox="0 0 8500 11000"
 xmlns:xlink="http://www.w3.org/1999/xlink"
 xmlns:xodm="http://www.corel.com/coreldraw/odm/2003">
 <defs>
  <style type="text/css">
   <![CDATA[
    .str0 {stroke:#CC9933;stroke-width:3;stroke-miterlimit:22.9256}
    .fil3 {fill:#000066}
    .fil2 {fill:#CC9933}
    .fil0 {fill:#000066;fill-rule:nonzero}
    .fil1 {fill:#CC9933;fill-rule:nonzero}
    .fil4 {fill:red;fill-rule:nonzero}
   ]]>
  </style>
 </defs>
 <g id="Layer_x0020_1">
  <metadata id="CorelCorpID_0Corel-Layer"/>
  <path class="fil0" d="M1989.04 6550.6l90.17 0c57.89,0 101.3,7 129.69,21.02 27.83,14.01 51.2,36.64 69.57,67.89 18.37,31.26 27.28,67.9 27.28,109.93 0,29.64 -5.01,57.12 -15.03,81.91 -10.57,25.33 -24.49,45.8 -42.86,62.51 -17.81,16.17 -37.29,28.02 -58.44,33.95 -20.59,6.47 -57.33,9.7 -109.09,9.7l-91.28 0 0 -386.9zm75.7 71.13l0 244.1 35.07 0c35.06,0 60.11,-3.77 75.69,-11.85 15.58,-7.54 28.39,-20.48 38.41,-38.8 10.02,-18.32 15.03,-40.41 15.03,-67.35 0,-40.96 -11.69,-72.75 -35.62,-95.38 -21.15,-20.48 -55.66,-30.71 -102.97,-30.71l-25.6 0zm292.21 -71.13l242.12 0 -142.49 315.77 133.03 0 0 71.13 -244.34 0 141.93 -314.16 -130.24 0 0 -72.74zm293.88 0l75.69 0 0 386.9 -75.69 0 0 -386.9zm161.96 0l72.36 0 171.99 254.34 0 -254.34 75.7 0 0 386.9 -72.91 0 -171.43 -253.8 0 253.8 -75.7 0 0 -386.9zm411.88 0l218.19 0 0 72.2 -142.49 0 0 69.52 142.49 0 0 71.13 -142.49 0 0 101.84 142.49 0 0 72.21 -218.19 0 0 -386.9zm262.16 0l86.27 0 84.04 123.94 84.6 -123.94 86.27 0 -127.46 188.06 134.7 198.84 -86.83 0 -91.28 -135.26 -91.28 135.26 -86.27 0 134.7 -198.84 -127.46 -188.06zm560.48 0l77.37 0 0 146.03 133.58 0 0 -146.03 76.81 0 0 386.9 -76.81 0 0 -169.74 -133.58 0 0 169.74 -77.37 0 0 -386.9zm350.65 0l81.26 0 74.02 139.02 74.03 -139.02 81.82 0 -117.44 219.31 0 167.59 -76.81 0 0 -167.59 -116.89 -219.31zm372.92 386.9l0 -386.9 62.89 0c36.73,0 63.45,2.15 80.7,7 23.94,5.93 42.86,17.24 57.33,33.95 13.91,16.7 21.15,36.64 21.15,59.28 0,14.55 -3.34,28.02 -9.46,39.87 -6.68,11.85 -17.25,23.17 -31.72,33.95 24.49,10.78 42.3,24.79 53.43,41.49 11.13,16.17 16.7,36.1 16.7,58.74 0,21.56 -5.56,41.49 -17.26,59.28 -11.69,17.78 -26.72,31.25 -45.08,39.87 -18.37,9.16 -43.97,13.47 -76.26,13.47l-112.43 0zm75.7 -316.85l0 81.91 17.25 0c18.93,0 32.84,-3.77 41.74,-11.31 9.46,-7.54 13.91,-17.78 13.91,-31.25 0,-11.86 -4.45,-21.56 -12.8,-28.56 -8.91,-7 -22.26,-10.78 -40.07,-10.78l-20.04 0zm0 147.65l0 99.15 19.48 0c31.73,0 53.43,-3.77 64.56,-11.85 11.14,-7.55 16.7,-18.86 16.7,-33.41 0,-16.7 -6.68,-29.64 -19.48,-39.34 -13.36,-9.7 -35.07,-14.55 -65.12,-14.55l-16.14 0zm252.69 -217.7l80.7 0c44.53,0 75.7,3.77 94.62,11.31 18.92,7.54 33.95,20.48 45.08,38.26 11.69,17.78 17.26,38.26 17.26,62.51 0,25.87 -6.13,46.88 -18.93,64.13 -12.24,17.24 -31.17,30.17 -56.77,38.8l94.62 171.9 -83.49 0 -89.61 -163.81 -7.79 0 0 163.81 -75.7 0 0 -386.9zm75.7 151.42l23.93 0c24.49,0 41.74,-3.23 50.65,-9.16 9.46,-6.47 13.91,-16.7 13.91,-30.72 0,-8.62 -2.22,-16.17 -6.68,-22.09 -4.45,-6.46 -10.57,-10.78 -18.37,-13.47 -7.79,-3.24 -21.71,-4.31 -42.3,-4.31l-21.15 0 0 79.75zm236.55 -151.42l75.7 0 0 386.9 -75.7 0 0 -386.9zm161.97 0l90.17 0c57.89,0 101.3,7 129.69,21.02 27.83,14.01 51.2,36.64 69.57,67.89 18.37,31.26 27.28,67.9 27.28,109.93 0,29.64 -5.01,57.12 -15.03,81.91 -10.57,25.33 -24.49,45.8 -42.86,62.51 -17.81,16.17 -37.29,28.02 -58.44,33.95 -20.59,6.47 -57.33,9.7 -109.09,9.7l-91.28 0 0 -386.9zm75.7 71.13l0 244.1 35.07 0c35.06,0 60.11,-3.77 75.69,-11.85 15.58,-7.54 28.39,-20.48 38.41,-38.8 10.02,-18.32 15.03,-40.41 15.03,-67.35 0,-40.96 -11.69,-72.75 -35.62,-95.38 -21.15,-20.48 -55.66,-30.71 -102.97,-30.71l-25.6 0z"/>
  <path class="fil1 str0" d="M2535.07 7074.29l-17.12 12.8c-9.31,-11.93 -20.43,-20.94 -33.64,-27.05 -13.22,-6.11 -27.64,-9.02 -43.26,-9.02 -17.13,0 -33.05,4.07 -47.76,11.93 -14.72,8.15 -26.13,18.91 -34.25,32.28 -7.81,13.38 -12.02,28.79 -12.02,45.66 0,25.3 9.01,46.53 27.04,63.69 18.02,17.16 40.85,25.59 68.19,25.59 30.34,0 55.57,-11.34 75.7,-34.31l17.12 12.5c-10.81,13.09 -24.03,23.56 -40.25,30.83 -15.92,7.27 -33.94,10.76 -53.77,10.76 -37.85,0 -67.59,-12.22 -89.52,-36.65 -18.02,-20.36 -27.33,-45.08 -27.33,-74.16 0,-30.54 11.11,-56.43 33.35,-77.07 21.93,-20.94 49.87,-31.41 83.21,-31.41 20.13,0 38.15,3.78 54.37,11.34 16.22,7.85 29.74,18.61 39.95,32.28z"/>
  <path class="fil1 str0" d="M2701.26 7030.66c32.74,0 60.08,10.47 82.01,31.7 21.93,20.94 33.04,47.12 33.04,77.94 0,30.54 -10.81,56.42 -32.74,77.65 -22.23,21.23 -48.96,31.99 -80.51,31.99 -31.84,0 -58.88,-10.76 -80.81,-31.7 -21.93,-21.23 -33.04,-46.83 -33.04,-77.07 0,-20.07 5.11,-38.68 15.02,-55.84 9.92,-17.16 23.73,-30.54 41.16,-40.13 17.13,-9.6 35.75,-14.54 55.88,-14.54zm1.2 20.36c-15.92,0 -31.24,4.07 -45.36,11.93 -14.42,8.15 -25.53,18.91 -33.65,32.57 -8.11,13.67 -12.02,28.79 -12.02,45.66 0,24.72 9.01,45.66 26.74,62.82 17.72,17.16 39.05,25.59 64.28,25.59 16.52,0 32.15,-4.07 46.27,-11.93 14.42,-7.85 25.53,-18.61 33.34,-31.99 8.11,-13.67 12.02,-28.79 12.02,-45.66 0,-16.57 -3.9,-31.41 -12.02,-44.79 -7.81,-13.38 -19.22,-24.14 -33.64,-32.28 -14.42,-7.85 -29.74,-11.93 -45.96,-11.93z"/>
  <polygon class="fil1 str0" points="2880.1,7244.72 2880.1,7035.9 2884.9,7035.9 3028.19,7195.57 3028.19,7035.9 3049.82,7035.9 3049.82,7244.72 3045.02,7244.72 2902.32,7086.5 2902.32,7244.72 "/>
  <path class="fil1 str0" d="M3099.94 7205.74l18.33 -10.76c12.92,22.98 27.94,34.61 44.76,34.61 7.21,0 14.12,-1.75 20.43,-4.94 6.31,-3.2 11.11,-7.56 14.41,-13.09 3.61,-5.53 5.11,-11.34 5.11,-17.45 0,-6.98 -2.41,-13.96 -7.21,-20.65 -6.91,-9.3 -19.22,-20.36 -37.25,-33.44 -18.02,-13.09 -29.14,-22.69 -33.64,-28.5 -7.51,-9.89 -11.42,-20.65 -11.42,-31.99 0,-9.02 2.41,-17.45 6.91,-24.72 4.51,-7.56 10.81,-13.38 18.93,-17.74 8.11,-4.36 17.12,-6.4 26.74,-6.4 10.21,0 19.83,2.33 28.54,7.27 9.01,4.94 18.32,13.96 28.24,26.76l-17.72 13.09c-8.11,-10.47 -15.02,-17.45 -20.73,-20.65 -5.7,-3.2 -12.02,-4.94 -18.93,-4.94 -8.71,0 -15.92,2.62 -21.33,7.56 -5.7,5.23 -8.41,11.34 -8.41,18.9 0,4.65 0.91,9.02 3.01,13.38 1.8,4.07 5.4,8.73 10.81,13.67 2.7,2.62 12.02,9.6 27.94,20.94 18.63,13.38 31.54,25.3 38.45,35.77 6.91,10.18 10.51,20.65 10.51,31.41 0,15.13 -6,28.21 -17.72,39.26 -12.02,11.34 -26.44,16.87 -43.56,16.87 -12.91,0 -24.93,-3.49 -35.74,-10.18 -10.52,-6.69 -20.43,-18.32 -29.44,-34.03z"/>
  <polygon class="fil1 str0" points="3270.63,7056.26 3270.63,7035.9 3388.69,7035.9 3388.69,7056.26 3340.62,7056.26 3340.62,7244.72 3318.69,7244.72 3318.69,7056.26 "/>
  <path class="fil1 str0" d="M3441.26 7035.9l42.96 0c24.04,0 40.26,0.87 48.96,2.91 12.92,2.62 23.13,8.72 31.24,18.03 8.11,9.31 12.02,20.94 12.02,34.61 0,11.34 -2.7,21.23 -8.41,29.95 -5.41,8.44 -13.22,15.13 -23.73,19.49 -10.21,4.36 -24.33,6.69 -42.36,6.69l77.51 97.14 -26.43 0 -77.81 -97.14 -12.31 0 0 97.14 -21.63 0 0 -208.82zm21.63 20.36l0 70.96 37.25 0.29c14.42,0 25.23,-1.46 32.14,-4.07 6.91,-2.62 12.32,-6.69 16.22,-12.51 3.91,-5.81 5.7,-12.5 5.7,-19.78 0,-6.98 -1.8,-13.38 -6,-18.91 -3.91,-5.81 -9.02,-9.89 -15.32,-12.22 -6.31,-2.61 -17.13,-3.78 -31.84,-3.78l-38.15 0z"/>
  <path class="fil1 str0" d="M3643.49 7035.9l21.63 0 0 126.22c0,14.83 0.3,24.14 0.9,27.92 1.2,8.15 3.6,15.12 7.51,20.65 3.9,5.53 9.91,10.18 18.02,13.96 8.11,3.49 16.22,5.52 24.63,5.52 6.91,0 13.82,-1.45 20.43,-4.36 6.61,-2.91 12.02,-6.98 16.52,-12.21 4.2,-5.24 7.51,-11.63 9.61,-18.91 1.5,-5.24 2.1,-16.29 2.1,-32.57l0 -126.22 21.63 0 0 125.93c0,18.61 -1.8,33.74 -5.71,45.37 -3.61,11.34 -11.11,21.52 -22.53,29.95 -11.41,8.44 -24.93,12.8 -41.15,12.8 -17.43,0 -32.14,-4.07 -44.76,-12.22 -12.32,-7.85 -20.73,-18.61 -24.93,-31.7 -2.7,-8.14 -3.91,-22.98 -3.91,-44.2l0 -125.93z"/>
  <path class="fil1 str0" d="M4060.45 7074.29l-17.13 12.8c-9.31,-11.93 -20.43,-20.94 -33.64,-27.05 -13.22,-6.11 -27.64,-9.02 -43.26,-9.02 -17.12,0 -33.04,4.07 -47.76,11.93 -14.72,8.15 -26.14,18.91 -34.25,32.28 -7.81,13.38 -12.02,28.79 -12.02,45.66 0,25.3 9.01,46.53 27.04,63.69 18.02,17.16 40.85,25.59 68.19,25.59 30.34,0 55.57,-11.34 75.7,-34.31l17.13 12.5c-10.81,13.09 -24.04,23.56 -40.26,30.83 -15.92,7.27 -33.94,10.76 -53.77,10.76 -37.85,0 -67.59,-12.22 -89.52,-36.65 -18.02,-20.36 -27.33,-45.08 -27.33,-74.16 0,-30.54 11.11,-56.43 33.35,-77.07 21.93,-20.94 49.87,-31.41 83.21,-31.41 20.13,0 38.15,3.78 54.37,11.34 16.22,7.85 29.74,18.61 39.95,32.28z"/>
  <polygon class="fil1 str0" points="4102.56,7056.26 4102.56,7035.9 4220.63,7035.9 4220.63,7056.26 4172.56,7056.26 4172.56,7244.72 4150.63,7244.72 4150.63,7056.26 "/>
  <polygon class="fil1 str0" points="4269,7035.9 4290.63,7035.9 4290.63,7244.72 4269,7244.72 "/>
  <path class="fil1 str0" d="M4462.81 7030.66c32.74,0 60.08,10.47 82.01,31.7 21.93,20.94 33.04,47.12 33.04,77.94 0,30.54 -10.81,56.42 -32.74,77.65 -22.23,21.23 -48.96,31.99 -80.51,31.99 -31.84,0 -58.88,-10.76 -80.81,-31.7 -21.93,-21.23 -33.04,-46.83 -33.04,-77.07 0,-20.07 5.11,-38.68 15.02,-55.84 9.91,-17.16 23.73,-30.54 41.16,-40.13 17.13,-9.6 35.75,-14.54 55.87,-14.54zm1.2 20.36c-15.92,0 -31.24,4.07 -45.36,11.93 -14.42,8.15 -25.54,18.91 -33.65,32.57 -8.11,13.67 -12.02,28.79 -12.02,45.66 0,24.72 9.01,45.66 26.74,62.82 17.72,17.16 39.05,25.59 64.28,25.59 16.52,0 32.15,-4.07 46.26,-11.93 14.42,-7.85 25.54,-18.61 33.34,-31.99 8.11,-13.67 12.02,-28.79 12.02,-45.66 0,-16.57 -3.9,-31.41 -12.02,-44.79 -7.81,-13.38 -19.22,-24.14 -33.64,-32.28 -14.42,-7.85 -29.74,-11.93 -45.96,-11.93z"/>
  <polygon class="fil1 str0" points="4641.67,7244.72 4641.67,7035.9 4646.47,7035.9 4789.76,7195.57 4789.76,7035.9 4811.39,7035.9 4811.39,7244.72 4806.58,7244.72 4663.89,7086.5 4663.89,7244.72 "/>
  <polygon class="fil1 str0" points="4966.91,7035.9 4988.54,7035.9 4988.54,7224.36 5071.74,7224.36 5071.74,7244.72 4966.91,7244.72 "/>
  <polygon class="fil1 str0" points="5104.49,7056.26 5104.49,7035.9 5222.55,7035.9 5222.55,7056.26 5174.48,7056.26 5174.48,7244.72 5152.55,7244.72 5152.55,7056.26 "/>
  <path class="fil1 str0" d="M5273.93 7244.72l0 -208.82 44.76 0c32.14,0 55.57,2.62 70.29,7.56 21.03,6.98 37.25,19.19 48.97,36.94 11.71,17.45 17.72,38.39 17.72,62.53 0,20.94 -4.51,39.26 -14.12,55.26 -9.31,15.7 -21.33,27.63 -36.35,35.19 -14.72,7.56 -35.75,11.34 -62.49,11.34l-68.79 0zm20.72 -19.78l24.93 0c29.74,0 50.17,-1.75 61.89,-5.53 16.22,-4.94 28.84,-14.25 38.15,-27.34 9.31,-13.38 13.82,-29.67 13.82,-48.86 0,-20.07 -5.11,-37.52 -15.02,-51.77 -9.92,-14.25 -24.04,-23.85 -42.06,-29.37 -13.52,-3.78 -35.44,-5.82 -66.39,-5.82l-15.32 0 0 168.69z"/>
  <path class="fil1 str0" d="M5536.88 7213.31c5.1,0 9.31,1.74 12.91,4.94 3.31,3.49 5.11,7.56 5.11,12.5 0,4.94 -1.8,9.02 -5.11,12.51 -3.6,3.49 -7.81,5.23 -12.91,5.23 -4.81,0 -9.31,-1.74 -12.62,-5.23 -3.6,-3.49 -5.41,-7.56 -5.41,-12.51 0,-4.94 1.81,-9.02 5.41,-12.5 3.3,-3.2 7.81,-4.94 12.62,-4.94z"/>
  <g id="_2145688563664">
   <polygon class="fil2" points="3369.68,5055.15 3941.39,4587.16 4510.69,5052.74 3943.81,4664.36 "/>
   <polygon class="fil3" points="3813.54,4835.63 3922.09,4835.63 3922.09,4944.18 3813.54,4944.18 "/>
   <polygon class="fil3" points="3958.28,4835.63 4066.83,4835.63 4066.83,4944.18 3958.28,4944.18 "/>
   <polygon class="fil3" points="3813.54,4975.54 3922.09,4975.54 3922.09,5084.09 3813.54,5084.09 "/>
   <polygon class="fil3" points="3958.28,4975.54 4066.83,4975.54 4066.83,5084.09 3958.28,5084.09 "/>
   <polygon class="fil2" points="4803.19,5224.61 4479.94,5224.61 4130.16,5622.64 4163.93,5767.38 4537.84,5333.17 4791.13,5333.17 "/>
   <polygon class="fil2" points="4800.78,6394.94 4477.53,6394.94 4127.74,5996.91 4161.52,5852.17 4535.43,6286.38 4788.71,6286.38 "/>
   <path class="fil2" d="M3317.74 5519.12l0 669.96 235.28 0c275.65,0 514.73,-364.74 571.85,-561.49l-63.8 -98.9c-103.37,223.22 -262.58,545.44 -522.41,536.7l-93.32 2.46 0 -548.73 -127.61 0z"/>
   <path class="fil3" d="M3937.39 4364.31l-435.03 350.97 0 -147.98 -177.34 0 0 289.62 -468.5 374.19 735.09 -5.42c570.35,50.17 700.97,924.71 -26.54,1045.25l-335.31 1.74 0 -831.56 323.25 2.41c179.78,9.84 314.73,153.41 279.82,407.68l127.85 -176.1c-24.8,-194.19 -168.31,-344.4 -378.73,-356.27l-482.46 -0.74 0 1073.47 482.46 3.38c490.47,-15.4 791.28,-594.87 473.39,-1039.47 -85.55,-119.65 -226.63,-236.52 -463.74,-251.4l-388.72 -0.67 736.7 -583.1 883.86 699.58 -50.78 -0.76 -512.85 581.43 518.64 593.42 155.59 -4.82 -510.2 -583.78 504.13 -576.46 94.69 2.2 -1085.28 -866.8z"/>
   <polygon class="fil2" points="4771.72,5502.37 4650.48,5645.93 4650.48,5961.76 4771.72,6100.54 "/>
  </g>
  <path class="fil4" d="M5110.05 6441.84l15.24 0c8.41,0 14.3,0.74 17.87,2.21 3.57,1.47 6.41,4 8.52,7.46 2.2,3.47 3.26,7.46 3.26,12.19 0,5.05 -1.16,9.15 -3.57,12.51 -2.31,3.36 -5.89,5.89 -10.72,7.57l17.87 33.54 -15.77 0 -16.93 -31.96 -1.47 0 0 31.96 -14.3 0 0 -75.48zm14.3 29.54l4.52 0c4.63,0 7.89,-0.63 9.57,-1.79 1.79,-1.26 2.63,-3.26 2.63,-5.99 0,-1.68 -0.42,-3.15 -1.26,-4.31 -0.84,-1.26 -2,-2.1 -3.47,-2.63 -1.47,-0.63 -4.1,-0.84 -7.99,-0.84l-4 0 0 15.56z"/>
  <path class="fil4" d="M5251.04 6455.09l-10.09 9.56c-6.83,-7.25 -14.51,-10.83 -23.13,-10.83 -7.15,0 -13.24,2.42 -18.19,7.36 -4.94,4.94 -7.46,11.04 -7.46,18.19 0,5.04 1.15,9.57 3.26,13.45 2.21,3.89 5.36,6.94 9.36,9.15 4,2.2 8.41,3.36 13.35,3.36 4.2,0 7.99,-0.74 11.46,-2.31 3.47,-1.58 7.25,-4.42 11.35,-8.52l9.78 10.2c-5.57,5.46 -10.83,9.25 -15.77,11.35 -4.94,2.1 -10.62,3.15 -17.03,3.15 -11.78,0 -21.34,-3.68 -28.81,-11.15 -7.46,-7.46 -11.25,-17.03 -11.25,-28.59 0,-7.57 1.69,-14.19 5.15,-20.08 3.36,-5.89 8.2,-10.51 14.61,-14.09 6.31,-3.57 13.14,-5.36 20.5,-5.36 6.2,0 12.19,1.26 17.98,3.89 5.78,2.63 10.72,6.41 14.93,11.25z"/>
  <path class="fil4" d="M5281.32 6460.13c2.21,0 4.1,0.74 5.68,2.31 1.58,1.57 2.31,3.47 2.31,5.78 0,2.21 -0.74,4 -2.31,5.57 -1.57,1.58 -3.47,2.42 -5.68,2.42 -2.31,0 -4.2,-0.74 -5.78,-2.31 -1.47,-1.57 -2.31,-3.47 -2.31,-5.68 0,-2.31 0.84,-4.2 2.31,-5.78 1.57,-1.58 3.47,-2.31 5.78,-2.31zm0 42.47c2.21,0 4.1,0.74 5.68,2.31 1.58,1.58 2.31,3.47 2.31,5.68 0,2.21 -0.74,4.1 -2.31,5.68 -1.57,1.68 -3.47,2.42 -5.68,2.42 -2.31,0 -4.2,-0.74 -5.78,-2.42 -1.47,-1.58 -2.31,-3.47 -2.31,-5.68 0,-2.21 0.84,-4.1 2.31,-5.68 1.57,-1.57 3.47,-2.31 5.78,-2.31z"/>
  <path class="fil4" d="M5365.41 6519.22l-12.19 -6.1 13.14 -25.65c-6.41,0 -11.88,-2.31 -16.3,-6.83 -4.52,-4.63 -6.73,-10.3 -6.73,-17.13 0,-6.63 2.31,-12.2 6.94,-16.72 4.63,-4.52 10.09,-6.83 16.61,-6.83 6.83,0 12.51,2.31 17.03,7.04 4.63,4.73 6.83,10.2 6.83,16.4 0,2.31 -0.32,4.63 -1.05,6.94 -0.74,2.42 -2.31,5.99 -4.84,10.93l-19.45 37.95zm1.79 -45.31c2.74,0 4.94,-0.94 6.73,-2.94 1.79,-1.89 2.74,-4.31 2.74,-7.26 0,-2.94 -0.95,-5.36 -2.84,-7.36 -1.89,-2 -4.1,-2.94 -6.63,-2.94 -2.73,0 -4.94,0.95 -6.94,2.94 -1.89,2 -2.84,4.41 -2.84,7.36 0,2.94 0.94,5.36 2.84,7.26 1.79,2 4.2,2.94 6.94,2.94z"/>
  <path class="fil4" d="M5427.45 6460.45l-13.77 0c0.74,-5.57 2.74,-10.09 5.99,-13.45 4.63,-4.73 10.3,-7.04 17.24,-7.04 6.2,0 11.46,2 15.56,5.89 4.2,3.99 6.31,8.62 6.31,14.09 0,3.26 -0.94,6.41 -2.73,9.15 -1.89,2.73 -4.52,5.05 -7.99,6.73 4.52,1.37 8.2,3.78 10.72,7.15 2.63,3.36 3.89,7.46 3.89,11.98 0,6.83 -2.52,12.51 -7.46,17.24 -5.05,4.73 -11.35,7.04 -19.13,7.04 -7.26,0 -13.25,-2.21 -17.87,-6.63 -4.63,-4.41 -7.15,-10.51 -7.57,-18.08l14.19 0c0.63,3.89 2,6.83 4.1,8.72 2.1,1.89 4.73,2.84 7.99,2.84 3.26,0 6.1,-1.05 8.31,-3.26 2.21,-2.1 3.26,-4.73 3.26,-7.88 0,-3.47 -1.47,-6.31 -4.42,-8.62 -2.94,-2.42 -7.25,-3.57 -12.82,-3.68l0 -12.3c3.47,-0.31 5.99,-0.84 7.67,-1.68 1.68,-0.74 3.05,-1.89 3.99,-3.26 0.95,-1.47 1.37,-2.94 1.37,-4.52 0,-2.1 -0.74,-3.78 -2.1,-5.15 -1.47,-1.37 -3.37,-2 -5.68,-2 -2.1,0 -3.89,0.63 -5.57,1.89 -1.68,1.26 -2.83,2.84 -3.47,4.83z"/>
  <path class="fil4" d="M5496.22 6466.23l-13.98 0c0.42,-8.2 2.94,-14.61 7.67,-19.24 4.73,-4.73 10.83,-7.04 18.29,-7.04 4.52,0 8.62,0.94 12.09,2.94 3.47,1.89 6.31,4.63 8.41,8.31 2.1,3.68 3.15,7.36 3.15,11.14 0,4.52 -1.26,9.25 -3.78,14.51 -2.63,5.15 -7.26,11.25 -14.09,18.29l-8.41 8.94 26.91 0 0 13.24 -52.35 0 0 -6.83 23.34 -23.86c5.67,-5.68 9.46,-10.3 11.25,-13.77 1.89,-3.47 2.84,-6.62 2.84,-9.35 0,-2.94 -0.95,-5.36 -2.84,-7.26 -2,-1.89 -4.52,-2.84 -7.46,-2.84 -3.15,0 -5.68,1.16 -7.78,3.47 -2,2.31 -3.15,5.36 -3.26,9.36z"/>
  <path class="fil4" d="M5568.35 6460.45l-13.77 0c0.74,-5.57 2.74,-10.09 5.99,-13.45 4.63,-4.73 10.3,-7.04 17.24,-7.04 6.2,0 11.46,2 15.56,5.89 4.2,3.99 6.31,8.62 6.31,14.09 0,3.26 -0.94,6.41 -2.73,9.15 -1.89,2.73 -4.52,5.05 -7.99,6.73 4.52,1.37 8.2,3.78 10.72,7.15 2.63,3.36 3.89,7.46 3.89,11.98 0,6.83 -2.52,12.51 -7.46,17.24 -5.05,4.73 -11.35,7.04 -19.13,7.04 -7.26,0 -13.25,-2.21 -17.87,-6.63 -4.63,-4.41 -7.15,-10.51 -7.57,-18.08l14.19 0c0.63,3.89 2,6.83 4.1,8.72 2.1,1.89 4.73,2.84 7.99,2.84 3.26,0 6.1,-1.05 8.31,-3.26 2.21,-2.1 3.26,-4.73 3.26,-7.88 0,-3.47 -1.47,-6.31 -4.42,-8.62 -2.94,-2.42 -7.25,-3.57 -12.82,-3.68l0 -12.3c3.47,-0.31 5.99,-0.84 7.67,-1.68 1.68,-0.74 3.05,-1.89 3.99,-3.26 0.95,-1.47 1.37,-2.94 1.37,-4.52 0,-2.1 -0.74,-3.78 -2.1,-5.15 -1.47,-1.37 -3.37,-2 -5.68,-2 -2.1,0 -3.89,0.63 -5.57,1.89 -1.68,1.26 -2.83,2.84 -3.47,4.83z"/>
  <path class="fil4" d="M5653.74 6439.95l14.3 0 0 48.67 6.73 0 0 13.25 -6.73 0 0 15.45 -14.09 0 0 -15.45 -33.01 0 0 -13.25 32.8 -48.67zm0.21 48.67l0 -25.33 -17.24 25.33 17.24 0z"/>
  <path class="fil4" d="M5707.59 6466.23l-13.98 0c0.42,-8.2 2.94,-14.61 7.67,-19.24 4.73,-4.73 10.83,-7.04 18.29,-7.04 4.52,0 8.62,0.94 12.09,2.94 3.47,1.89 6.31,4.63 8.41,8.31 2.1,3.68 3.15,7.36 3.15,11.14 0,4.52 -1.26,9.25 -3.78,14.51 -2.63,5.15 -7.26,11.25 -14.09,18.29l-8.41 8.94 26.91 0 0 13.24 -52.35 0 0 -6.83 23.34 -23.86c5.67,-5.68 9.46,-10.3 11.25,-13.77 1.89,-3.47 2.84,-6.62 2.84,-9.35 0,-2.94 -0.95,-5.36 -2.84,-7.26 -2,-1.89 -4.52,-2.84 -7.46,-2.84 -3.15,0 -5.68,1.16 -7.78,3.47 -2,2.31 -3.15,5.36 -3.26,9.36z"/>
  <path class="fil4" d="M5804.64 6476.43c3.47,2.21 6.09,4.94 7.99,8.41 1.79,3.47 2.73,7.15 2.73,11.15 0,4.41 -1.05,8.41 -3.26,12.09 -2.2,3.68 -5.04,6.52 -8.72,8.31 -3.68,1.89 -8.41,2.84 -14.09,2.84 -6.1,0 -10.93,-0.84 -14.51,-2.74 -3.57,-1.79 -6.52,-4.52 -8.62,-8.09 -2.21,-3.68 -3.26,-7.78 -3.26,-12.4 0,-3.89 0.84,-7.57 2.63,-10.83 1.68,-3.26 4.31,-6.2 7.78,-8.72 -2.21,-2.31 -4,-4.73 -5.15,-7.36 -1.05,-2.52 -1.68,-5.26 -1.68,-8.2 0,-3.89 0.94,-7.46 2.84,-10.72 1.89,-3.15 4.63,-5.68 7.99,-7.46 3.47,-1.89 7.36,-2.73 11.88,-2.73 4.42,0 8.31,0.94 11.67,2.73 3.37,1.79 5.99,4.31 7.89,7.67 2,3.36 2.94,6.94 2.94,10.72 0,2.73 -0.53,5.26 -1.47,7.57 -1.05,2.31 -2.84,4.94 -5.57,7.78zm-15.98 -22.6c-2.31,0 -4.31,0.74 -5.78,2.31 -1.57,1.57 -2.31,3.57 -2.31,5.99 0,2.42 0.84,4.41 2.42,6.09 1.58,1.58 3.57,2.42 5.89,2.42 2.42,0 4.42,-0.84 5.99,-2.42 1.58,-1.57 2.31,-3.68 2.31,-6.2 0,-2.42 -0.74,-4.42 -2.31,-5.89 -1.57,-1.58 -3.68,-2.31 -6.2,-2.31zm0.63 30.28c-3.47,0 -6.41,1.05 -8.72,3.15 -2.42,2.1 -3.57,4.63 -3.57,7.46 0,3.05 1.16,5.68 3.37,7.78 2.2,2.1 5.15,3.15 8.83,3.15 3.57,0 6.52,-0.94 8.73,-2.94 2.2,-2 3.26,-4.52 3.26,-7.67 0,-3.05 -1.15,-5.68 -3.36,-7.78 -2.31,-2.1 -5.15,-3.15 -8.52,-3.15z"/>
  <polygon class="fil0" points="2830.22,7458.13 2833.27,7443.59 2847.81,7443.59 2844.76,7458.13 "/>
  <polygon class="fil0" points="2885.32,7458.13 2888.38,7443.59 2902.92,7443.59 2899.86,7458.13 "/>
  <polygon class="fil0" points="2940.43,7458.13 2943.48,7443.59 2958.02,7443.59 2954.96,7458.13 "/>
  <path class="fil0" d="M3006.29 7458.13l-7.85 -75.46 12.36 0 3.34 33.88 1.31 19.05c0.15,1.46 0.29,4.36 0.58,8.58 1.45,-4.8 2.76,-8.43 3.63,-11.05 1.02,-2.62 2.62,-6.25 4.8,-11.05l18.03 -39.41 13.96 0 2.47 37.81c0.29,5.67 0.58,13.23 0.72,22.83 2.33,-6.25 6.11,-14.98 11.49,-26.32l16.28 -34.31 12.94 0 -36.93 75.46 -13.52 0 -2.62 -44.2c-0.29,-2.76 -0.44,-8.15 -0.58,-16.14 -2.04,5.09 -4.36,10.61 -6.98,16.43l-19.92 43.91 -13.52 0z"/>
  <path class="fil0" d="M3111.75 7458.13l21.81 -104.11 12.8 0 -8.43 39.99c4.8,-4.65 9.16,-8 13.23,-9.89 4.07,-2.04 8.15,-3.05 12.51,-3.05 6.11,0 10.9,1.6 14.25,4.94 3.49,3.2 5.09,7.56 5.09,12.94 0,2.76 -0.73,7.56 -2.33,14.69l-9.89 44.49 -12.8 0 10.04 -45.66c1.45,-6.54 2.18,-10.76 2.18,-12.5 0,-2.33 -0.87,-4.36 -2.47,-5.96 -1.75,-1.6 -4.07,-2.33 -7.27,-2.33 -4.51,0 -8.87,1.16 -12.94,3.63 -4.22,2.47 -7.42,5.82 -9.74,10.04 -2.33,4.22 -4.51,11.05 -6.4,20.35l-6.83 32.43 -12.8 0z"/>
  <path class="fil0" d="M3262.72 7432.54l12.5 1.16c-1.74,6.25 -5.96,12.07 -12.36,17.59 -6.54,5.67 -14.25,8.43 -23.12,8.43 -5.67,0 -10.76,-1.31 -15.41,-3.93 -4.65,-2.47 -8.29,-6.25 -10.76,-11.2 -2.47,-4.94 -3.64,-10.47 -3.64,-16.72 0,-8.29 1.89,-16.28 5.67,-23.99 3.93,-7.7 8.87,-13.52 14.83,-17.16 6.11,-3.78 12.65,-5.67 19.78,-5.67 9.02,0 16.28,2.76 21.67,8.29 5.38,5.67 8,13.23 8,22.83 0,3.64 -0.29,7.42 -1.02,11.34l-55.69 0c-0.15,1.45 -0.29,2.76 -0.29,3.93 0,7.13 1.6,12.5 4.94,16.29 3.2,3.63 7.27,5.52 11.93,5.52 4.36,0 8.72,-1.45 13.09,-4.36 4.22,-2.76 7.56,-6.98 9.89,-12.36zm-37.52 -18.9l42.61 0c0,-1.31 0,-2.33 0,-2.91 0,-6.4 -1.6,-11.2 -4.8,-14.69 -3.35,-3.35 -7.42,-5.09 -12.5,-5.09 -5.53,0 -10.61,1.89 -15.12,5.67 -4.51,3.78 -7.85,9.45 -10.18,17.01z"/>
  <path class="fil0" d="M3302.89 7458.13l15.7 -75.46 11.49 0 -3.2 15.41c3.93,-5.81 7.7,-10.03 11.34,-12.8 3.78,-2.91 7.56,-4.22 11.49,-4.22 2.47,0 5.67,0.87 9.45,2.76l-5.24 11.92c-2.33,-1.6 -4.8,-2.47 -7.42,-2.47 -4.51,0 -9.16,2.47 -13.81,7.56 -4.8,4.94 -8.58,13.96 -11.34,27.04l-6.25 30.24 -12.21 0z"/>
  <path class="fil0" d="M3421.41 7432.54l12.5 1.16c-1.74,6.25 -5.96,12.07 -12.36,17.59 -6.54,5.67 -14.25,8.43 -23.12,8.43 -5.67,0 -10.76,-1.31 -15.41,-3.93 -4.65,-2.47 -8.29,-6.25 -10.76,-11.2 -2.47,-4.94 -3.64,-10.47 -3.64,-16.72 0,-8.29 1.89,-16.28 5.67,-23.99 3.93,-7.7 8.87,-13.52 14.83,-17.16 6.11,-3.78 12.65,-5.67 19.78,-5.67 9.02,0 16.28,2.76 21.67,8.29 5.38,5.67 8,13.23 8,22.83 0,3.64 -0.29,7.42 -1.02,11.34l-55.69 0c-0.15,1.45 -0.29,2.76 -0.29,3.93 0,7.13 1.6,12.5 4.94,16.29 3.2,3.63 7.27,5.52 11.93,5.52 4.36,0 8.72,-1.45 13.09,-4.36 4.22,-2.76 7.56,-6.98 9.89,-12.36zm-37.52 -18.9l42.61 0c0,-1.31 0,-2.33 0,-2.91 0,-6.4 -1.6,-11.2 -4.8,-14.69 -3.35,-3.35 -7.42,-5.09 -12.5,-5.09 -5.53,0 -10.61,1.89 -15.12,5.67 -4.51,3.78 -7.85,9.45 -10.18,17.01z"/>
  <path class="fil0" d="M3552.73 7447.22c-7.41,8.29 -14.98,12.5 -22.97,12.5 -7.13,0 -13.09,-2.62 -17.89,-7.85 -4.8,-5.38 -7.13,-12.94 -7.13,-22.97 0,-9.16 1.89,-17.59 5.67,-25.16 3.78,-7.56 8.43,-13.23 14.1,-17.01 5.67,-3.78 11.34,-5.67 17.01,-5.67 9.31,0 16.43,4.51 21.23,13.52l8.43 -40.57 12.8 0 -21.67 104.11 -11.93 0 2.33 -10.91zm-35.19 -20.79c0,5.23 0.58,9.45 1.6,12.36 1.02,3.06 2.76,5.52 5.38,7.56 2.47,2.04 5.38,3.06 9.02,3.06 5.81,0 11.05,-3.06 15.85,-9.02 6.25,-8 9.45,-18.03 9.45,-29.81 0,-5.81 -1.6,-10.47 -4.65,-13.96 -3.2,-3.35 -7.12,-4.94 -11.78,-4.94 -3.06,0 -5.96,0.73 -8.43,2.04 -2.62,1.31 -5.09,3.63 -7.56,6.98 -2.47,3.2 -4.65,7.41 -6.25,12.5 -1.74,5.09 -2.62,9.45 -2.62,13.23z"/>
  <path class="fil0" d="M3652.95 7432.54l12.5 1.16c-1.74,6.25 -5.96,12.07 -12.36,17.59 -6.54,5.67 -14.25,8.43 -23.12,8.43 -5.67,0 -10.76,-1.31 -15.41,-3.93 -4.65,-2.47 -8.29,-6.25 -10.76,-11.2 -2.47,-4.94 -3.64,-10.47 -3.64,-16.72 0,-8.29 1.89,-16.28 5.67,-23.99 3.93,-7.7 8.87,-13.52 14.83,-17.16 6.11,-3.78 12.65,-5.67 19.78,-5.67 9.02,0 16.28,2.76 21.67,8.29 5.38,5.67 8,13.23 8,22.83 0,3.64 -0.29,7.42 -1.02,11.34l-55.69 0c-0.15,1.45 -0.29,2.76 -0.29,3.93 0,7.13 1.6,12.5 4.94,16.29 3.2,3.63 7.27,5.52 11.93,5.52 4.36,0 8.72,-1.45 13.09,-4.36 4.22,-2.76 7.56,-6.98 9.89,-12.36zm-37.52 -18.9l42.61 0c0,-1.31 0,-2.33 0,-2.91 0,-6.4 -1.6,-11.2 -4.8,-14.69 -3.35,-3.35 -7.42,-5.09 -12.5,-5.09 -5.53,0 -10.61,1.89 -15.12,5.67 -4.51,3.78 -7.85,9.45 -10.18,17.01z"/>
  <path class="fil0" d="M3694.29 7432.24l12.94 -0.73c0,3.64 0.58,6.83 1.74,9.45 1.02,2.62 3.2,4.65 6.25,6.4 3.06,1.6 6.54,2.47 10.61,2.47 5.53,0 9.89,-1.17 12.65,-3.49 2.76,-2.18 4.22,-4.94 4.22,-8 0,-2.18 -0.87,-4.22 -2.47,-6.25 -1.74,-2.04 -5.96,-4.51 -12.8,-7.41 -6.69,-2.76 -11.05,-4.8 -12.94,-6.11 -3.2,-1.89 -5.53,-4.22 -7.13,-6.83 -1.6,-2.62 -2.47,-5.53 -2.47,-9.02 0,-5.96 2.33,-11.05 7.13,-15.27 4.65,-4.22 11.34,-6.4 19.78,-6.4 9.45,0 16.57,2.18 21.52,6.54 4.94,4.36 7.56,10.18 7.7,17.3l-12.5 0.87c-0.15,-4.51 -1.74,-8.14 -4.8,-10.91 -3.05,-2.61 -7.27,-3.93 -12.8,-3.93 -4.36,0 -7.85,1.02 -10.32,3.06 -2.47,2.04 -3.63,4.22 -3.63,6.69 0,2.33 1.02,4.36 3.2,6.25 1.45,1.16 5.09,3.05 10.91,5.67 9.74,4.22 16,7.56 18.46,10.04 4.07,3.93 6.11,8.58 6.11,14.25 0,3.78 -1.17,7.41 -3.49,11.05 -2.18,3.49 -5.67,6.4 -10.47,8.58 -4.65,2.18 -10.18,3.2 -16.57,3.2 -8.58,0 -16,-2.18 -22.1,-6.54 -6.11,-4.22 -9.02,-11.19 -8.72,-20.94z"/>
  <path class="fil0" d="M3799 7368.56l3.06 -14.54 12.8 0 -3.06 14.54 -12.8 0zm-18.76 89.57l15.85 -75.46 12.8 0 -15.85 75.46 -12.8 0z"/>
  <path class="fil0" d="M3826.67 7464.96l13.09 1.16c-0.15,2.91 0.29,5.24 1.02,6.69 0.87,1.45 2.18,2.62 3.93,3.35 2.33,1.02 5.23,1.6 9.02,1.6 7.7,0 13.23,-2.04 16.72,-5.96 2.18,-2.76 4.22,-8.58 6.11,-17.74l1.31 -6.11c-6.69,6.83 -13.81,10.18 -21.37,10.18 -7.56,0 -13.96,-2.76 -19.05,-8.43 -5.09,-5.53 -7.7,-13.52 -7.7,-23.85 0,-8.43 2.04,-16.14 6.11,-23.26 4.07,-7.13 8.87,-12.5 14.39,-16.14 5.53,-3.63 11.34,-5.38 17.16,-5.38 9.89,0 17.59,4.65 22.83,13.81l2.76 -12.21 11.78 0 -15.27 72.85c-1.6,8 -3.78,14.25 -6.54,18.76 -2.76,4.51 -6.4,8 -11.2,10.47 -4.8,2.47 -10.32,3.63 -16.72,3.63 -5.96,0 -11.2,-0.73 -15.56,-2.33 -4.36,-1.6 -7.7,-3.93 -9.89,-6.83 -2.18,-3.05 -3.2,-6.54 -3.2,-10.32 0,-1.31 0.15,-2.47 0.29,-3.93zm16.14 -40.13c0,5.09 0.58,9.01 1.45,11.63 1.45,3.63 3.49,6.4 6.11,8.29 2.62,1.89 5.52,2.91 8.87,2.91 4.22,0 8.43,-1.45 12.5,-4.51 4.22,-2.91 7.56,-7.42 10.18,-13.67 2.62,-6.25 3.93,-12.07 3.93,-17.74 0,-6.25 -1.75,-11.2 -5.24,-14.83 -3.34,-3.63 -7.7,-5.52 -12.8,-5.52 -3.06,0 -6.11,0.87 -9.02,2.47 -3.05,1.74 -5.67,4.22 -8.29,7.7 -2.47,3.49 -4.36,7.56 -5.67,12.36 -1.31,4.8 -2.04,8.43 -2.04,10.91z"/>
  <path class="fil0" d="M3922.97 7458.13l15.85 -75.46 11.63 0 -2.62 13.23c5.09,-5.24 9.89,-9.02 14.25,-11.34 4.5,-2.33 9.01,-3.49 13.67,-3.49 6.25,0 11.05,1.6 14.54,4.94 3.49,3.34 5.38,7.85 5.38,13.37 0,2.76 -0.73,7.13 -2.04,13.23l-10.18 45.51 -12.8 0 10.61 -47.69c1.02,-4.65 1.6,-8.14 1.6,-10.32 0,-2.47 -0.87,-4.51 -2.62,-6.11 -1.89,-1.6 -4.36,-2.33 -7.7,-2.33 -6.69,0 -12.65,2.33 -17.89,7.13 -5.24,4.65 -9.16,12.8 -11.63,24.28l-7.27 35.04 -12.8 0z"/>
  <path class="fil0" d="M4058.94 7458.13l15.85 -75.46 12.8 0 -2.61 12.5c4.65,-5.38 9.01,-9.01 12.8,-11.05 3.78,-2.04 7.85,-3.05 12.21,-3.05 4.65,0 8.58,1.16 11.78,3.78 3.2,2.47 5.23,5.81 6.25,10.32 3.78,-4.65 7.85,-8.29 12.07,-10.61 4.22,-2.33 8.72,-3.49 13.38,-3.49 6.4,0 11.05,1.45 14.25,4.51 3.2,2.91 4.65,7.12 4.65,12.5 0,2.33 -0.44,6.11 -1.6,11.49l-10.32 48.56 -12.8 0 10.47 -49.73c0.87,-4.07 1.31,-6.98 1.31,-8.72 0,-2.47 -0.73,-4.51 -2.33,-5.81 -1.6,-1.45 -3.78,-2.18 -6.69,-2.18 -3.78,0 -7.7,1.16 -11.63,3.49 -4.07,2.33 -7.13,5.24 -9.31,9.02 -2.33,3.78 -4.22,9.6 -5.81,17.3l-7.71 36.64 -12.8 0 10.61 -50.89c0.87,-3.49 1.17,-5.82 1.17,-7.42 0,-2.33 -0.73,-4.36 -2.33,-5.81 -1.46,-1.6 -3.49,-2.33 -5.96,-2.33 -3.64,0 -7.42,1.16 -11.49,3.49 -4.07,2.33 -7.27,5.53 -9.74,9.6 -2.61,4.22 -4.65,10.03 -6.25,17.74l-7.41 35.62 -12.8 0z"/>
  <path class="fil0" d="M4250.3 7432.54l12.5 1.16c-1.74,6.25 -5.96,12.07 -12.36,17.59 -6.54,5.67 -14.25,8.43 -23.12,8.43 -5.67,0 -10.76,-1.31 -15.41,-3.93 -4.65,-2.47 -8.29,-6.25 -10.76,-11.2 -2.47,-4.94 -3.64,-10.47 -3.64,-16.72 0,-8.29 1.89,-16.28 5.67,-23.99 3.93,-7.7 8.87,-13.52 14.83,-17.16 6.11,-3.78 12.65,-5.67 19.78,-5.67 9.02,0 16.28,2.76 21.67,8.29 5.38,5.67 8,13.23 8,22.83 0,3.64 -0.29,7.42 -1.02,11.34l-55.69 0c-0.15,1.45 -0.29,2.76 -0.29,3.93 0,7.13 1.6,12.5 4.94,16.29 3.2,3.63 7.27,5.52 11.93,5.52 4.36,0 8.72,-1.45 13.09,-4.36 4.22,-2.76 7.56,-6.98 9.89,-12.36zm-37.52 -18.9l42.61 0c0,-1.31 0,-2.33 0,-2.91 0,-6.4 -1.6,-11.2 -4.8,-14.69 -3.35,-3.35 -7.42,-5.09 -12.5,-5.09 -5.53,0 -10.61,1.89 -15.12,5.67 -4.51,3.78 -7.85,9.45 -10.18,17.01z"/>
  <path class="fil0" d="M4345.88 7432.54l12.5 1.16c-1.74,6.25 -5.96,12.07 -12.36,17.59 -6.54,5.67 -14.25,8.43 -23.12,8.43 -5.67,0 -10.76,-1.31 -15.41,-3.93 -4.65,-2.47 -8.29,-6.25 -10.76,-11.2 -2.47,-4.94 -3.64,-10.47 -3.64,-16.72 0,-8.29 1.89,-16.28 5.67,-23.99 3.93,-7.7 8.87,-13.52 14.83,-17.16 6.11,-3.78 12.65,-5.67 19.78,-5.67 9.02,0 16.28,2.76 21.67,8.29 5.38,5.67 8,13.23 8,22.83 0,3.64 -0.29,7.42 -1.02,11.34l-55.69 0c-0.15,1.45 -0.29,2.76 -0.29,3.93 0,7.13 1.6,12.5 4.94,16.29 3.2,3.63 7.27,5.52 11.93,5.52 4.36,0 8.72,-1.45 13.09,-4.36 4.22,-2.76 7.56,-6.98 9.89,-12.36zm-37.52 -18.9l42.61 0c0,-1.31 0,-2.33 0,-2.91 0,-6.4 -1.6,-11.2 -4.8,-14.69 -3.35,-3.35 -7.42,-5.09 -12.5,-5.09 -5.53,0 -10.61,1.89 -15.12,5.67 -4.51,3.78 -7.85,9.45 -10.18,17.01z"/>
  <path class="fil0" d="M4416.01 7447.66l-2.18 10.61c-3.06,0.73 -6.11,1.16 -8.87,1.16 -5.24,0 -9.16,-1.31 -12.21,-3.78 -2.33,-1.89 -3.49,-4.51 -3.49,-7.7 0,-1.74 0.73,-5.53 1.89,-11.49l9.16 -43.91 -10.18 0 2.04 -9.89 10.18 0 3.93 -18.46 14.69 -8.87 -5.81 27.33 12.65 0 -2.18 9.89 -12.5 0 -8.72 41.73c-1.02,5.38 -1.6,8.43 -1.6,9.6 0,1.45 0.44,2.61 1.31,3.49 0.87,0.73 2.33,1.16 4.22,1.16 2.91,0 5.38,-0.29 7.71,-0.87z"/>
  <path class="fil0" d="M4442.32 7432.24l12.94 -0.73c0,3.64 0.58,6.83 1.74,9.45 1.02,2.62 3.2,4.65 6.25,6.4 3.06,1.6 6.54,2.47 10.61,2.47 5.53,0 9.89,-1.17 12.65,-3.49 2.76,-2.18 4.22,-4.94 4.22,-8 0,-2.18 -0.87,-4.22 -2.47,-6.25 -1.74,-2.04 -5.96,-4.51 -12.8,-7.41 -6.69,-2.76 -11.05,-4.8 -12.94,-6.11 -3.2,-1.89 -5.53,-4.22 -7.13,-6.83 -1.6,-2.62 -2.47,-5.53 -2.47,-9.02 0,-5.96 2.33,-11.05 7.13,-15.27 4.65,-4.22 11.34,-6.4 19.78,-6.4 9.45,0 16.57,2.18 21.52,6.54 4.94,4.36 7.56,10.18 7.7,17.3l-12.5 0.87c-0.15,-4.51 -1.74,-8.14 -4.8,-10.91 -3.05,-2.61 -7.27,-3.93 -12.8,-3.93 -4.36,0 -7.85,1.02 -10.32,3.06 -2.47,2.04 -3.63,4.22 -3.63,6.69 0,2.33 1.02,4.36 3.2,6.25 1.45,1.16 5.09,3.05 10.91,5.67 9.74,4.22 16,7.56 18.46,10.04 4.07,3.93 6.11,8.58 6.11,14.25 0,3.78 -1.17,7.41 -3.49,11.05 -2.18,3.49 -5.67,6.4 -10.47,8.58 -4.65,2.18 -10.18,3.2 -16.57,3.2 -8.58,0 -16,-2.18 -22.1,-6.54 -6.11,-4.22 -9.02,-11.19 -8.72,-20.94z"/>
  <path class="fil0" d="M4568.96 7458.13l15.7 -75.46 11.49 0 -3.2 15.41c3.93,-5.81 7.7,-10.03 11.34,-12.8 3.78,-2.91 7.56,-4.22 11.49,-4.22 2.47,0 5.67,0.87 9.45,2.76l-5.24 11.92c-2.33,-1.6 -4.8,-2.47 -7.42,-2.47 -4.51,0 -9.16,2.47 -13.81,7.56 -4.8,4.94 -8.58,13.96 -11.34,27.04l-6.25 30.24 -12.21 0z"/>
  <path class="fil0" d="M4687.48 7432.54l12.5 1.16c-1.74,6.25 -5.96,12.07 -12.36,17.59 -6.54,5.67 -14.25,8.43 -23.12,8.43 -5.67,0 -10.76,-1.31 -15.41,-3.93 -4.65,-2.47 -8.29,-6.25 -10.76,-11.2 -2.47,-4.94 -3.64,-10.47 -3.64,-16.72 0,-8.29 1.89,-16.28 5.67,-23.99 3.93,-7.7 8.87,-13.52 14.83,-17.16 6.11,-3.78 12.65,-5.67 19.78,-5.67 9.02,0 16.28,2.76 21.67,8.29 5.38,5.67 8,13.23 8,22.83 0,3.64 -0.29,7.42 -1.02,11.34l-55.69 0c-0.15,1.45 -0.29,2.76 -0.29,3.93 0,7.13 1.6,12.5 4.94,16.29 3.2,3.63 7.27,5.52 11.93,5.52 4.36,0 8.72,-1.45 13.09,-4.36 4.22,-2.76 7.56,-6.98 9.89,-12.36zm-37.52 -18.9l42.61 0c0,-1.31 0,-2.33 0,-2.91 0,-6.4 -1.6,-11.2 -4.8,-14.69 -3.35,-3.35 -7.42,-5.09 -12.5,-5.09 -5.53,0 -10.61,1.89 -15.12,5.67 -4.51,3.78 -7.85,9.45 -10.18,17.01z"/>
  <path class="fil0" d="M4778.4 7448.67c-4.51,3.93 -8.72,6.69 -12.8,8.43 -4.22,1.75 -8.58,2.62 -13.23,2.62 -6.98,0 -12.65,-2.04 -16.87,-6.11 -4.22,-4.07 -6.4,-9.31 -6.4,-15.7 0,-4.22 1.02,-8 2.91,-11.19 1.89,-3.2 4.51,-5.82 7.56,-7.71 3.2,-2.04 7.13,-3.49 11.63,-4.22 2.91,-0.58 8.43,-1.02 16.57,-1.45 8.14,-0.29 13.96,-1.17 17.45,-2.47 1.02,-3.49 1.45,-6.4 1.45,-8.72 0,-3.06 -1.02,-5.38 -3.2,-7.13 -3.06,-2.33 -7.42,-3.49 -13.23,-3.49 -5.38,0 -9.74,1.16 -13.23,3.63 -3.49,2.33 -5.96,5.82 -7.56,10.18l-12.94 -1.17c2.61,-7.41 6.83,-13.23 12.65,-17.16 5.67,-3.93 12.94,-5.96 21.67,-5.96 9.3,0 16.72,2.18 22.1,6.69 4.22,3.34 6.25,7.56 6.25,12.94 0,3.93 -0.58,8.58 -1.74,13.96l-4.07 18.76c-1.31,5.96 -2.04,10.76 -2.04,14.54 0,2.33 0.58,5.67 1.6,10.18l-13.09 0c-0.58,-2.47 -1.16,-5.52 -1.45,-9.45zm4.8 -28.79c-1.74,0.72 -3.78,1.31 -5.81,1.6 -2.04,0.44 -5.53,0.87 -10.33,1.17 -7.56,0.72 -12.8,1.6 -15.85,2.61 -3.06,1.02 -5.38,2.62 -6.98,4.8 -1.6,2.33 -2.33,4.65 -2.33,7.42 0,3.63 1.31,6.54 3.78,8.87 2.47,2.33 5.96,3.49 10.61,3.49 4.22,0 8.29,-1.17 12.22,-3.35 3.93,-2.33 7.12,-5.38 9.3,-9.45 2.33,-4.07 4.07,-9.74 5.38,-17.16z"/>
  <polygon class="fil0" points="4822.36,7458.13 4844.02,7354.02 4856.82,7354.02 4835.01,7458.13 "/>
  <path class="fil0" d="M4888.71 7368.56l3.06 -14.54 12.8 0 -3.06 14.54 -12.8 0zm-18.76 89.57l15.85 -75.46 12.8 0 -15.85 75.46 -12.8 0z"/>
  <path class="fil0" d="M4947.21 7447.66l-2.18 10.61c-3.06,0.73 -6.11,1.16 -8.87,1.16 -5.24,0 -9.16,-1.31 -12.21,-3.78 -2.33,-1.89 -3.49,-4.51 -3.49,-7.7 0,-1.74 0.73,-5.53 1.89,-11.49l9.16 -43.91 -10.18 0 2.04 -9.89 10.18 0 3.93 -18.46 14.69 -8.87 -5.81 27.33 12.65 0 -2.18 9.89 -12.5 0 -8.72 41.73c-1.02,5.38 -1.6,8.43 -1.6,9.6 0,1.45 0.44,2.61 1.31,3.49 0.87,0.73 2.33,1.16 4.22,1.16 2.91,0 5.38,-0.29 7.71,-0.87z"/>
  <path class="fil0" d="M4967.42 7487.2l0.73 -12.21c2.61,0.73 5.23,1.17 7.7,1.17 2.62,0 4.8,-0.58 6.4,-1.75 2.04,-1.6 4.36,-4.5 6.83,-8.72l4.07 -7.41 -12.5 -75.61 12.65 0 5.67 37.95c1.17,7.42 2.18,14.98 2.91,22.39l33.73 -60.34 13.38 0 -48.13 85.35c-4.65,8.29 -8.72,13.96 -12.36,16.58 -3.49,2.76 -7.7,4.07 -12.36,4.07 -2.91,0 -5.81,-0.44 -8.72,-1.46z"/>
 </g>
</svg>
