<?xml version="1.0" encoding="UTF-8"?>
<!DOCTYPE svg PUBLIC "-//W3C//DTD SVG 1.1//EN" "http://www.w3.org/Graphics/SVG/1.1/DTD/svg11.dtd">
<!-- Creator: CorelDRAW -->
<svg xmlns="http://www.w3.org/2000/svg" xml:space="preserve" width="8.5in" height="11in" version="1.1" style="shape-rendering:geometricPrecision; text-rendering:geometricPrecision; image-rendering:optimizeQuality; fill-rule:evenodd; clip-rule:evenodd"
viewBox="0 0 8500 11000"
 xmlns:xlink="http://www.w3.org/1999/xlink"
 xmlns:xodm="http://www.corel.com/coreldraw/odm/2003">
 <defs>
  <style type="text/css">
   <![CDATA[
    .str0 {stroke:#CC9933;stroke-width:3;stroke-miterlimit:22.9256}
    .fil3 {fill:#000066}
    .fil2 {fill:#CC9933}
    .fil0 {fill:#000066;fill-rule:nonzero}
    .fil1 {fill:#CC9933;fill-rule:nonzero}
   ]]>
  </style>
 </defs>
 <g id="Layer_x0020_1">
  <metadata id="CorelCorpID_0Corel-Layer"/>
  <path class="fil0" d="M3273.09 6239.37l90.17 0c57.89,0 101.3,7 129.69,21.02 27.83,14.01 51.2,36.64 69.57,67.89 18.37,31.26 27.28,67.9 27.28,109.93 0,29.64 -5.01,57.12 -15.03,81.91 -10.57,25.33 -24.49,45.8 -42.86,62.51 -17.81,16.17 -37.29,28.02 -58.44,33.95 -20.59,6.47 -57.33,9.7 -109.09,9.7l-91.28 0 0 -386.9zm75.7 71.13l0 244.1 35.07 0c35.06,0 60.11,-3.77 75.69,-11.85 15.58,-7.54 28.39,-20.48 38.41,-38.8 10.02,-18.32 15.03,-40.41 15.03,-67.35 0,-40.96 -11.69,-72.75 -35.62,-95.38 -21.15,-20.48 -55.66,-30.71 -102.97,-30.71l-25.6 0zm292.21 -71.13l242.12 0 -142.49 315.77 133.03 0 0 71.13 -244.34 0 141.93 -314.16 -130.24 0 0 -72.74zm293.88 0l75.69 0 0 386.9 -75.69 0 0 -386.9zm161.96 0l72.36 0 171.99 254.34 0 -254.34 75.7 0 0 386.9 -72.91 0 -171.43 -253.8 0 253.8 -75.7 0 0 -386.9zm411.88 0l218.19 0 0 72.2 -142.49 0 0 69.52 142.49 0 0 71.13 -142.49 0 0 101.84 142.49 0 0 72.21 -218.19 0 0 -386.9zm262.16 0l86.27 0 84.04 123.94 84.6 -123.94 86.27 0 -127.46 188.06 134.7 198.84 -86.83 0 -91.28 -135.26 -91.28 135.26 -86.27 0 134.7 -198.84 -127.46 -188.06zm560.48 0l77.37 0 0 146.03 133.58 0 0 -146.03 76.81 0 0 386.9 -76.81 0 0 -169.74 -133.58 0 0 169.74 -77.37 0 0 -386.9zm350.65 0l81.26 0 74.02 139.02 74.03 -139.02 81.82 0 -117.44 219.31 0 167.59 -76.81 0 0 -167.59 -116.89 -219.31zm372.92 386.9l0 -386.9 62.89 0c36.73,0 63.45,2.15 80.7,7 23.94,5.93 42.86,17.24 57.33,33.95 13.91,16.7 21.15,36.64 21.15,59.28 0,14.55 -3.34,28.02 -9.46,39.87 -6.68,11.85 -17.25,23.17 -31.72,33.95 24.49,10.78 42.3,24.79 53.43,41.49 11.13,16.17 16.7,36.1 16.7,58.74 0,21.56 -5.56,41.49 -17.26,59.28 -11.69,17.78 -26.72,31.25 -45.08,39.87 -18.37,9.16 -43.97,13.47 -76.26,13.47l-112.43 0zm75.7 -316.85l0 81.91 17.25 0c18.93,0 32.84,-3.77 41.74,-11.31 9.46,-7.54 13.91,-17.78 13.91,-31.25 0,-11.86 -4.45,-21.56 -12.8,-28.56 -8.91,-7 -22.26,-10.78 -40.07,-10.78l-20.04 0zm0 147.65l0 99.15 19.48 0c31.73,0 53.43,-3.77 64.56,-11.85 11.14,-7.55 16.7,-18.86 16.7,-33.41 0,-16.7 -6.68,-29.64 -19.48,-39.34 -13.36,-9.7 -35.07,-14.55 -65.12,-14.55l-16.14 0zm252.69 -217.7l80.7 0c44.53,0 75.7,3.77 94.62,11.31 18.92,7.54 33.95,20.48 45.08,38.26 11.69,17.78 17.26,38.26 17.26,62.51 0,25.87 -6.13,46.88 -18.93,64.13 -12.24,17.24 -31.17,30.17 -56.77,38.8l94.62 171.9 -83.49 0 -89.61 -163.81 -7.79 0 0 163.81 -75.7 0 0 -386.9zm75.7 151.42l23.93 0c24.49,0 41.74,-3.23 50.65,-9.16 9.46,-6.47 13.91,-16.7 13.91,-30.72 0,-8.62 -2.22,-16.17 -6.68,-22.09 -4.45,-6.46 -10.57,-10.78 -18.37,-13.47 -7.79,-3.24 -21.71,-4.31 -42.3,-4.31l-21.15 0 0 79.75zm236.55 -151.42l75.7 0 0 386.9 -75.7 0 0 -386.9zm161.97 0l90.17 0c57.89,0 101.3,7 129.69,21.02 27.83,14.01 51.2,36.64 69.57,67.89 18.37,31.26 27.28,67.9 27.28,109.93 0,29.64 -5.01,57.12 -15.03,81.91 -10.57,25.33 -24.49,45.8 -42.86,62.51 -17.81,16.17 -37.29,28.02 -58.44,33.95 -20.59,6.47 -57.33,9.7 -109.09,9.7l-91.28 0 0 -386.9zm75.7 71.13l0 244.1 35.07 0c35.06,0 60.11,-3.77 75.69,-11.85 15.58,-7.54 28.39,-20.48 38.41,-38.8 10.02,-18.32 15.03,-40.41 15.03,-67.35 0,-40.96 -11.69,-72.75 -35.62,-95.38 -21.15,-20.48 -55.66,-30.71 -102.97,-30.71l-25.6 0z"/>
  <path class="fil1 str0" d="M3433.41 6798.66l-17.12 12.8c-9.31,-11.93 -20.43,-20.94 -33.64,-27.05 -13.22,-6.11 -27.64,-9.02 -43.26,-9.02 -17.13,0 -33.05,4.07 -47.76,11.93 -14.72,8.15 -26.13,18.91 -34.25,32.28 -7.81,13.38 -12.02,28.79 -12.02,45.66 0,25.3 9.01,46.53 27.04,63.69 18.02,17.16 40.85,25.59 68.19,25.59 30.34,0 55.57,-11.34 75.7,-34.31l17.12 12.5c-10.81,13.09 -24.03,23.56 -40.25,30.83 -15.92,7.27 -33.94,10.76 -53.77,10.76 -37.85,0 -67.59,-12.22 -89.52,-36.65 -18.02,-20.36 -27.33,-45.08 -27.33,-74.16 0,-30.54 11.11,-56.43 33.35,-77.07 21.93,-20.94 49.87,-31.41 83.21,-31.41 20.13,0 38.15,3.78 54.37,11.34 16.22,7.85 29.74,18.61 39.95,32.28z"/>
  <path class="fil1 str0" d="M3599.59 6755.04c32.74,0 60.08,10.47 82.01,31.7 21.93,20.94 33.04,47.12 33.04,77.94 0,30.54 -10.81,56.42 -32.74,77.65 -22.23,21.23 -48.96,31.99 -80.51,31.99 -31.84,0 -58.88,-10.76 -80.81,-31.7 -21.93,-21.23 -33.04,-46.83 -33.04,-77.07 0,-20.07 5.11,-38.68 15.02,-55.84 9.92,-17.16 23.73,-30.54 41.16,-40.13 17.13,-9.6 35.75,-14.54 55.88,-14.54zm1.2 20.36c-15.92,0 -31.24,4.07 -45.36,11.93 -14.42,8.15 -25.53,18.91 -33.65,32.57 -8.11,13.67 -12.02,28.79 -12.02,45.66 0,24.72 9.01,45.66 26.74,62.82 17.72,17.16 39.05,25.59 64.28,25.59 16.52,0 32.15,-4.07 46.27,-11.93 14.42,-7.85 25.53,-18.61 33.34,-31.99 8.11,-13.67 12.02,-28.79 12.02,-45.66 0,-16.57 -3.9,-31.41 -12.02,-44.79 -7.81,-13.38 -19.22,-24.14 -33.64,-32.28 -14.42,-7.85 -29.74,-11.93 -45.96,-11.93z"/>
  <polygon class="fil1 str0" points="3778.43,6969.09 3778.43,6760.27 3783.24,6760.27 3926.53,6919.94 3926.53,6760.27 3948.16,6760.27 3948.16,6969.09 3943.35,6969.09 3800.66,6810.88 3800.66,6969.09 "/>
  <path class="fil1 str0" d="M3998.28 6930.12l18.33 -10.76c12.92,22.98 27.94,34.61 44.76,34.61 7.21,0 14.12,-1.75 20.43,-4.94 6.31,-3.2 11.11,-7.56 14.41,-13.09 3.61,-5.53 5.11,-11.34 5.11,-17.45 0,-6.98 -2.41,-13.96 -7.21,-20.65 -6.91,-9.3 -19.22,-20.36 -37.25,-33.44 -18.02,-13.09 -29.14,-22.69 -33.64,-28.5 -7.51,-9.89 -11.42,-20.65 -11.42,-31.99 0,-9.02 2.41,-17.45 6.91,-24.72 4.51,-7.56 10.81,-13.38 18.93,-17.74 8.11,-4.36 17.12,-6.4 26.74,-6.4 10.21,0 19.83,2.33 28.54,7.27 9.01,4.94 18.32,13.96 28.24,26.76l-17.72 13.09c-8.11,-10.47 -15.02,-17.45 -20.73,-20.65 -5.7,-3.2 -12.02,-4.94 -18.93,-4.94 -8.71,0 -15.92,2.62 -21.33,7.56 -5.7,5.23 -8.41,11.34 -8.41,18.9 0,4.65 0.91,9.02 3.01,13.38 1.8,4.07 5.4,8.73 10.81,13.67 2.7,2.62 12.02,9.6 27.94,20.94 18.63,13.38 31.54,25.3 38.45,35.77 6.91,10.18 10.51,20.65 10.51,31.41 0,15.13 -6,28.21 -17.72,39.26 -12.02,11.34 -26.44,16.87 -43.56,16.87 -12.91,0 -24.93,-3.49 -35.74,-10.18 -10.52,-6.69 -20.43,-18.32 -29.44,-34.03z"/>
  <polygon class="fil1 str0" points="4168.96,6780.63 4168.96,6760.27 4287.02,6760.27 4287.02,6780.63 4238.95,6780.63 4238.95,6969.09 4217.02,6969.09 4217.02,6780.63 "/>
  <path class="fil1 str0" d="M4339.6 6760.27l42.96 0c24.04,0 40.26,0.87 48.96,2.91 12.92,2.62 23.13,8.72 31.24,18.03 8.11,9.31 12.02,20.94 12.02,34.61 0,11.34 -2.7,21.23 -8.41,29.95 -5.41,8.44 -13.22,15.13 -23.73,19.49 -10.21,4.36 -24.33,6.69 -42.36,6.69l77.51 97.14 -26.43 0 -77.81 -97.14 -12.31 0 0 97.14 -21.63 0 0 -208.82zm21.63 20.36l0 70.96 37.25 0.29c14.42,0 25.23,-1.46 32.14,-4.07 6.91,-2.62 12.32,-6.69 16.22,-12.51 3.91,-5.81 5.7,-12.5 5.7,-19.78 0,-6.98 -1.8,-13.38 -6,-18.91 -3.91,-5.81 -9.02,-9.89 -15.32,-12.22 -6.31,-2.61 -17.13,-3.78 -31.84,-3.78l-38.15 0z"/>
  <path class="fil1 str0" d="M4541.82 6760.27l21.63 0 0 126.22c0,14.83 0.3,24.14 0.9,27.92 1.2,8.15 3.6,15.12 7.51,20.65 3.9,5.53 9.91,10.18 18.02,13.96 8.11,3.49 16.22,5.52 24.63,5.52 6.91,0 13.82,-1.45 20.43,-4.36 6.61,-2.91 12.02,-6.98 16.52,-12.21 4.2,-5.24 7.51,-11.63 9.61,-18.91 1.5,-5.24 2.1,-16.29 2.1,-32.57l0 -126.22 21.63 0 0 125.93c0,18.61 -1.8,33.74 -5.71,45.37 -3.61,11.34 -11.11,21.52 -22.53,29.95 -11.41,8.44 -24.93,12.8 -41.15,12.8 -17.43,0 -32.14,-4.07 -44.76,-12.22 -12.32,-7.85 -20.73,-18.61 -24.93,-31.7 -2.7,-8.14 -3.91,-22.98 -3.91,-44.2l0 -125.93z"/>
  <path class="fil1 str0" d="M4958.79 6798.66l-17.13 12.8c-9.31,-11.93 -20.43,-20.94 -33.64,-27.05 -13.22,-6.11 -27.64,-9.02 -43.26,-9.02 -17.12,0 -33.04,4.07 -47.76,11.93 -14.72,8.15 -26.14,18.91 -34.25,32.28 -7.81,13.38 -12.02,28.79 -12.02,45.66 0,25.3 9.01,46.53 27.04,63.69 18.02,17.16 40.85,25.59 68.19,25.59 30.34,0 55.57,-11.34 75.7,-34.31l17.13 12.5c-10.81,13.09 -24.04,23.56 -40.26,30.83 -15.92,7.27 -33.94,10.76 -53.77,10.76 -37.85,0 -67.59,-12.22 -89.52,-36.65 -18.02,-20.36 -27.33,-45.08 -27.33,-74.16 0,-30.54 11.11,-56.43 33.35,-77.07 21.93,-20.94 49.87,-31.41 83.21,-31.41 20.13,0 38.15,3.78 54.37,11.34 16.22,7.85 29.74,18.61 39.95,32.28z"/>
  <polygon class="fil1 str0" points="5000.9,6780.63 5000.9,6760.27 5118.96,6760.27 5118.96,6780.63 5070.89,6780.63 5070.89,6969.09 5048.96,6969.09 5048.96,6780.63 "/>
  <polygon class="fil1 str0" points="5167.33,6760.27 5188.96,6760.27 5188.96,6969.09 5167.33,6969.09 "/>
  <path class="fil1 str0" d="M5361.15 6755.04c32.74,0 60.08,10.47 82.01,31.7 21.93,20.94 33.04,47.12 33.04,77.94 0,30.54 -10.81,56.42 -32.74,77.65 -22.23,21.23 -48.96,31.99 -80.51,31.99 -31.84,0 -58.88,-10.76 -80.81,-31.7 -21.93,-21.23 -33.04,-46.83 -33.04,-77.07 0,-20.07 5.11,-38.68 15.02,-55.84 9.91,-17.16 23.73,-30.54 41.16,-40.13 17.13,-9.6 35.75,-14.54 55.87,-14.54zm1.2 20.36c-15.92,0 -31.24,4.07 -45.36,11.93 -14.42,8.15 -25.54,18.91 -33.65,32.57 -8.11,13.67 -12.02,28.79 -12.02,45.66 0,24.72 9.01,45.66 26.74,62.82 17.72,17.16 39.05,25.59 64.28,25.59 16.52,0 32.15,-4.07 46.26,-11.93 14.42,-7.85 25.54,-18.61 33.34,-31.99 8.11,-13.67 12.02,-28.79 12.02,-45.66 0,-16.57 -3.9,-31.41 -12.02,-44.79 -7.81,-13.38 -19.22,-24.14 -33.64,-32.28 -14.42,-7.85 -29.74,-11.93 -45.96,-11.93z"/>
  <polygon class="fil1 str0" points="5540,6969.09 5540,6760.27 5544.81,6760.27 5688.09,6919.94 5688.09,6760.27 5709.72,6760.27 5709.72,6969.09 5704.92,6969.09 5562.23,6810.88 5562.23,6969.09 "/>
  <polygon class="fil1 str0" points="5865.24,6760.27 5886.87,6760.27 5886.87,6948.73 5970.08,6948.73 5970.08,6969.09 5865.24,6969.09 "/>
  <polygon class="fil1 str0" points="6002.83,6780.63 6002.83,6760.27 6120.89,6760.27 6120.89,6780.63 6072.82,6780.63 6072.82,6969.09 6050.89,6969.09 6050.89,6780.63 "/>
  <path class="fil1 str0" d="M6172.26 6969.09l0 -208.82 44.76 0c32.14,0 55.57,2.62 70.29,7.56 21.03,6.98 37.25,19.19 48.97,36.94 11.71,17.45 17.72,38.39 17.72,62.53 0,20.94 -4.51,39.26 -14.12,55.26 -9.31,15.7 -21.33,27.63 -36.35,35.19 -14.72,7.56 -35.75,11.34 -62.49,11.34l-68.79 0zm20.72 -19.78l24.93 0c29.74,0 50.17,-1.75 61.89,-5.53 16.22,-4.94 28.84,-14.25 38.15,-27.34 9.31,-13.38 13.82,-29.67 13.82,-48.86 0,-20.07 -5.11,-37.52 -15.02,-51.77 -9.92,-14.25 -24.04,-23.85 -42.06,-29.37 -13.52,-3.78 -35.44,-5.82 -66.39,-5.82l-15.32 0 0 168.69z"/>
  <path class="fil1 str0" d="M6435.22 6937.68c5.1,0 9.31,1.74 12.91,4.94 3.31,3.49 5.11,7.56 5.11,12.5 0,4.94 -1.8,9.02 -5.11,12.51 -3.6,3.49 -7.81,5.23 -12.91,5.23 -4.81,0 -9.31,-1.74 -12.62,-5.23 -3.6,-3.49 -5.41,-7.56 -5.41,-12.51 0,-4.94 1.81,-9.02 5.41,-12.5 3.3,-3.2 7.81,-4.94 12.62,-4.94z"/>
  <g id="_2436363695792">
   <polygon class="fil2" points="1637.87,5854.06 2237.46,5363.25 2834.52,5851.53 2239.99,5444.21 "/>
   <polygon class="fil3" points="2103.37,5623.83 2217.22,5623.83 2217.22,5737.68 2103.37,5737.68 "/>
   <polygon class="fil3" points="2255.17,5623.83 2369.02,5623.83 2369.02,5737.68 2255.17,5737.68 "/>
   <polygon class="fil3" points="2103.37,5770.57 2217.22,5770.57 2217.22,5884.42 2103.37,5884.42 "/>
   <polygon class="fil3" points="2255.17,5770.57 2369.02,5770.57 2369.02,5884.42 2255.17,5884.42 "/>
   <polygon class="fil2" points="3141.28,6031.79 2802.27,6031.79 2435.43,6449.23 2470.85,6601.02 2862.99,6145.64 3128.63,6145.64 "/>
   <polygon class="fil2" points="3138.75,7259.19 2799.74,7259.19 2432.9,6841.75 2468.32,6689.96 2860.46,7145.34 3126.1,7145.34 "/>
   <path class="fil2" d="M1583.39 6340.66l0 702.63 246.76 0c289.09,0 539.83,-382.52 599.74,-588.87l-66.92 -103.72c-108.41,234.11 -275.39,572.04 -547.88,562.87l-97.87 2.58 0 -575.49 -133.83 0z"/>
   <path class="fil3" d="M2233.26 5129.53l-456.24 368.09 0 -155.2 -185.98 0 0 303.74 -491.35 392.44 770.94 -5.69c598.17,52.62 735.16,969.81 -27.83,1096.23l-351.66 1.82 0 -872.12 339.02 2.53c188.55,10.32 330.08,160.89 293.46,427.56l134.09 -184.69c-26.01,-203.66 -176.52,-361.2 -397.2,-373.65l-505.99 -0.78 0 1125.82 505.99 3.55c514.39,-16.15 829.87,-623.88 496.47,-1090.17 -89.72,-125.48 -237.69,-248.06 -486.35,-263.66l-407.67 -0.7 772.63 -611.54 926.96 733.7 -53.26 -0.79 -537.86 609.78 543.94 622.36 163.18 -5.05 -535.08 -612.25 528.71 -604.58 99.3 2.31 -1138.2 -909.07z"/>
   <polygon class="fil2" points="3108.28,6323.09 2981.13,6473.65 2981.13,6804.89 3108.28,6950.44 "/>
  </g>
  <polygon class="fil0" points="3728.55,7182.5 3731.61,7167.96 3746.15,7167.96 3743.09,7182.5 "/>
  <polygon class="fil0" points="3783.66,7182.5 3786.71,7167.96 3801.25,7167.96 3798.2,7182.5 "/>
  <polygon class="fil0" points="3838.76,7182.5 3841.81,7167.96 3856.35,7167.96 3853.3,7182.5 "/>
  <path class="fil0" d="M3904.63 7182.5l-7.85 -75.46 12.36 0 3.34 33.88 1.31 19.05c0.15,1.46 0.29,4.36 0.58,8.58 1.45,-4.8 2.76,-8.43 3.63,-11.05 1.02,-2.62 2.62,-6.25 4.8,-11.05l18.03 -39.41 13.96 0 2.47 37.81c0.29,5.67 0.58,13.23 0.72,22.83 2.33,-6.25 6.11,-14.98 11.49,-26.32l16.28 -34.31 12.94 0 -36.93 75.46 -13.52 0 -2.62 -44.2c-0.29,-2.76 -0.44,-8.15 -0.58,-16.14 -2.04,5.09 -4.36,10.61 -6.98,16.43l-19.92 43.91 -13.52 0z"/>
  <path class="fil0" d="M4010.08 7182.5l21.81 -104.11 12.8 0 -8.43 39.99c4.8,-4.65 9.16,-8 13.23,-9.89 4.07,-2.04 8.15,-3.05 12.51,-3.05 6.11,0 10.9,1.6 14.25,4.94 3.49,3.2 5.09,7.56 5.09,12.94 0,2.76 -0.73,7.56 -2.33,14.69l-9.89 44.49 -12.8 0 10.04 -45.66c1.45,-6.54 2.18,-10.76 2.18,-12.5 0,-2.33 -0.87,-4.36 -2.47,-5.96 -1.75,-1.6 -4.07,-2.33 -7.27,-2.33 -4.51,0 -8.87,1.16 -12.94,3.63 -4.22,2.47 -7.42,5.82 -9.74,10.04 -2.33,4.22 -4.51,11.05 -6.4,20.35l-6.83 32.43 -12.8 0z"/>
  <path class="fil0" d="M4161.06 7156.91l12.5 1.16c-1.74,6.25 -5.96,12.07 -12.36,17.59 -6.54,5.67 -14.25,8.43 -23.12,8.43 -5.67,0 -10.76,-1.31 -15.41,-3.93 -4.65,-2.47 -8.29,-6.25 -10.76,-11.2 -2.47,-4.94 -3.64,-10.47 -3.64,-16.72 0,-8.29 1.89,-16.28 5.67,-23.99 3.93,-7.7 8.87,-13.52 14.83,-17.16 6.11,-3.78 12.65,-5.67 19.78,-5.67 9.02,0 16.28,2.76 21.67,8.29 5.38,5.67 8,13.23 8,22.83 0,3.64 -0.29,7.42 -1.02,11.34l-55.69 0c-0.15,1.45 -0.29,2.76 -0.29,3.93 0,7.13 1.6,12.5 4.94,16.29 3.2,3.63 7.27,5.52 11.93,5.52 4.36,0 8.72,-1.45 13.09,-4.36 4.22,-2.76 7.56,-6.98 9.89,-12.36zm-37.52 -18.9l42.61 0c0,-1.31 0,-2.33 0,-2.91 0,-6.4 -1.6,-11.2 -4.8,-14.69 -3.35,-3.35 -7.42,-5.09 -12.5,-5.09 -5.53,0 -10.61,1.89 -15.12,5.67 -4.51,3.78 -7.85,9.45 -10.18,17.01z"/>
  <path class="fil0" d="M4201.23 7182.5l15.7 -75.46 11.49 0 -3.2 15.41c3.93,-5.81 7.7,-10.03 11.34,-12.8 3.78,-2.91 7.56,-4.22 11.49,-4.22 2.47,0 5.67,0.87 9.45,2.76l-5.24 11.92c-2.33,-1.6 -4.8,-2.47 -7.42,-2.47 -4.51,0 -9.16,2.47 -13.81,7.56 -4.8,4.94 -8.58,13.96 -11.34,27.04l-6.25 30.24 -12.21 0z"/>
  <path class="fil0" d="M4319.75 7156.91l12.5 1.16c-1.74,6.25 -5.96,12.07 -12.36,17.59 -6.54,5.67 -14.25,8.43 -23.12,8.43 -5.67,0 -10.76,-1.31 -15.41,-3.93 -4.65,-2.47 -8.29,-6.25 -10.76,-11.2 -2.47,-4.94 -3.64,-10.47 -3.64,-16.72 0,-8.29 1.89,-16.28 5.67,-23.99 3.93,-7.7 8.87,-13.52 14.83,-17.16 6.11,-3.78 12.65,-5.67 19.78,-5.67 9.02,0 16.28,2.76 21.67,8.29 5.38,5.67 8,13.23 8,22.83 0,3.64 -0.29,7.42 -1.02,11.34l-55.69 0c-0.15,1.45 -0.29,2.76 -0.29,3.93 0,7.13 1.6,12.5 4.94,16.29 3.2,3.63 7.27,5.52 11.93,5.52 4.36,0 8.72,-1.45 13.09,-4.36 4.22,-2.76 7.56,-6.98 9.89,-12.36zm-37.52 -18.9l42.61 0c0,-1.31 0,-2.33 0,-2.91 0,-6.4 -1.6,-11.2 -4.8,-14.69 -3.35,-3.35 -7.42,-5.09 -12.5,-5.09 -5.53,0 -10.61,1.89 -15.12,5.67 -4.51,3.78 -7.85,9.45 -10.18,17.01z"/>
  <path class="fil0" d="M4451.06 7171.59c-7.41,8.29 -14.98,12.5 -22.97,12.5 -7.13,0 -13.09,-2.62 -17.89,-7.85 -4.8,-5.38 -7.13,-12.94 -7.13,-22.97 0,-9.16 1.89,-17.59 5.67,-25.16 3.78,-7.56 8.43,-13.23 14.1,-17.01 5.67,-3.78 11.34,-5.67 17.01,-5.67 9.31,0 16.43,4.51 21.23,13.52l8.43 -40.57 12.8 0 -21.67 104.11 -11.93 0 2.33 -10.91zm-35.19 -20.79c0,5.23 0.58,9.45 1.6,12.36 1.02,3.06 2.76,5.52 5.38,7.56 2.47,2.04 5.38,3.06 9.02,3.06 5.81,0 11.05,-3.06 15.85,-9.02 6.25,-8 9.45,-18.03 9.45,-29.81 0,-5.81 -1.6,-10.47 -4.65,-13.96 -3.2,-3.35 -7.12,-4.94 -11.78,-4.94 -3.06,0 -5.96,0.73 -8.43,2.04 -2.62,1.31 -5.09,3.63 -7.56,6.98 -2.47,3.2 -4.65,7.41 -6.25,12.5 -1.74,5.09 -2.62,9.45 -2.62,13.23z"/>
  <path class="fil0" d="M4551.29 7156.91l12.5 1.16c-1.74,6.25 -5.96,12.07 -12.36,17.59 -6.54,5.67 -14.25,8.43 -23.12,8.43 -5.67,0 -10.76,-1.31 -15.41,-3.93 -4.65,-2.47 -8.29,-6.25 -10.76,-11.2 -2.47,-4.94 -3.64,-10.47 -3.64,-16.72 0,-8.29 1.89,-16.28 5.67,-23.99 3.93,-7.7 8.87,-13.52 14.83,-17.16 6.11,-3.78 12.65,-5.67 19.78,-5.67 9.02,0 16.28,2.76 21.67,8.29 5.38,5.67 8,13.23 8,22.83 0,3.64 -0.29,7.42 -1.02,11.34l-55.69 0c-0.15,1.45 -0.29,2.76 -0.29,3.93 0,7.13 1.6,12.5 4.94,16.29 3.2,3.63 7.27,5.52 11.93,5.52 4.36,0 8.72,-1.45 13.09,-4.36 4.22,-2.76 7.56,-6.98 9.89,-12.36zm-37.52 -18.9l42.61 0c0,-1.31 0,-2.33 0,-2.91 0,-6.4 -1.6,-11.2 -4.8,-14.69 -3.35,-3.35 -7.42,-5.09 -12.5,-5.09 -5.53,0 -10.61,1.89 -15.12,5.67 -4.51,3.78 -7.85,9.45 -10.18,17.01z"/>
  <path class="fil0" d="M4592.62 7156.62l12.94 -0.73c0,3.64 0.58,6.83 1.74,9.45 1.02,2.62 3.2,4.65 6.25,6.4 3.06,1.6 6.54,2.47 10.61,2.47 5.53,0 9.89,-1.17 12.65,-3.49 2.76,-2.18 4.22,-4.94 4.22,-8 0,-2.18 -0.87,-4.22 -2.47,-6.25 -1.74,-2.04 -5.96,-4.51 -12.8,-7.41 -6.69,-2.76 -11.05,-4.8 -12.94,-6.11 -3.2,-1.89 -5.53,-4.22 -7.13,-6.83 -1.6,-2.62 -2.47,-5.53 -2.47,-9.02 0,-5.96 2.33,-11.05 7.13,-15.27 4.65,-4.22 11.34,-6.4 19.78,-6.4 9.45,0 16.57,2.18 21.52,6.54 4.94,4.36 7.56,10.18 7.7,17.3l-12.5 0.87c-0.15,-4.51 -1.74,-8.14 -4.8,-10.91 -3.05,-2.61 -7.27,-3.93 -12.8,-3.93 -4.36,0 -7.85,1.02 -10.32,3.06 -2.47,2.04 -3.63,4.22 -3.63,6.69 0,2.33 1.02,4.36 3.2,6.25 1.45,1.16 5.09,3.05 10.91,5.67 9.74,4.22 16,7.56 18.46,10.04 4.07,3.93 6.11,8.58 6.11,14.25 0,3.78 -1.17,7.41 -3.49,11.05 -2.18,3.49 -5.67,6.4 -10.47,8.58 -4.65,2.18 -10.18,3.2 -16.57,3.2 -8.58,0 -16,-2.18 -22.1,-6.54 -6.11,-4.22 -9.02,-11.19 -8.72,-20.94z"/>
  <path class="fil0" d="M4697.33 7092.93l3.06 -14.54 12.8 0 -3.06 14.54 -12.8 0zm-18.76 89.57l15.85 -75.46 12.8 0 -15.85 75.46 -12.8 0z"/>
  <path class="fil0" d="M4725 7189.33l13.09 1.16c-0.15,2.91 0.29,5.24 1.02,6.69 0.87,1.45 2.18,2.62 3.93,3.35 2.33,1.02 5.23,1.6 9.02,1.6 7.7,0 13.23,-2.04 16.72,-5.96 2.18,-2.76 4.22,-8.58 6.11,-17.74l1.31 -6.11c-6.69,6.83 -13.81,10.18 -21.37,10.18 -7.56,0 -13.96,-2.76 -19.05,-8.43 -5.09,-5.53 -7.7,-13.52 -7.7,-23.85 0,-8.43 2.04,-16.14 6.11,-23.26 4.07,-7.13 8.87,-12.5 14.39,-16.14 5.53,-3.63 11.34,-5.38 17.16,-5.38 9.89,0 17.59,4.65 22.83,13.81l2.76 -12.21 11.78 0 -15.27 72.85c-1.6,8 -3.78,14.25 -6.54,18.76 -2.76,4.51 -6.4,8 -11.2,10.47 -4.8,2.47 -10.32,3.63 -16.72,3.63 -5.96,0 -11.2,-0.73 -15.56,-2.33 -4.36,-1.6 -7.7,-3.93 -9.89,-6.83 -2.18,-3.05 -3.2,-6.54 -3.2,-10.32 0,-1.31 0.15,-2.47 0.29,-3.93zm16.14 -40.13c0,5.09 0.58,9.01 1.45,11.63 1.45,3.63 3.49,6.4 6.11,8.29 2.62,1.89 5.52,2.91 8.87,2.91 4.22,0 8.43,-1.45 12.5,-4.51 4.22,-2.91 7.56,-7.42 10.18,-13.67 2.62,-6.25 3.93,-12.07 3.93,-17.74 0,-6.25 -1.75,-11.2 -5.24,-14.83 -3.34,-3.63 -7.7,-5.52 -12.8,-5.52 -3.06,0 -6.11,0.87 -9.02,2.47 -3.05,1.74 -5.67,4.22 -8.29,7.7 -2.47,3.49 -4.36,7.56 -5.67,12.36 -1.31,4.8 -2.04,8.43 -2.04,10.91z"/>
  <path class="fil0" d="M4821.3 7182.5l15.85 -75.46 11.63 0 -2.62 13.23c5.09,-5.24 9.89,-9.02 14.25,-11.34 4.5,-2.33 9.01,-3.49 13.67,-3.49 6.25,0 11.05,1.6 14.54,4.94 3.49,3.34 5.38,7.85 5.38,13.37 0,2.76 -0.73,7.13 -2.04,13.23l-10.18 45.51 -12.8 0 10.61 -47.69c1.02,-4.65 1.6,-8.14 1.6,-10.32 0,-2.47 -0.87,-4.51 -2.62,-6.11 -1.89,-1.6 -4.36,-2.33 -7.7,-2.33 -6.69,0 -12.65,2.33 -17.89,7.13 -5.24,4.65 -9.16,12.8 -11.63,24.28l-7.27 35.04 -12.8 0z"/>
  <path class="fil0" d="M4957.27 7182.5l15.85 -75.46 12.8 0 -2.61 12.5c4.65,-5.38 9.01,-9.01 12.8,-11.05 3.78,-2.04 7.85,-3.05 12.21,-3.05 4.65,0 8.58,1.16 11.78,3.78 3.2,2.47 5.23,5.81 6.25,10.32 3.78,-4.65 7.85,-8.29 12.07,-10.61 4.22,-2.33 8.72,-3.49 13.38,-3.49 6.4,0 11.05,1.45 14.25,4.51 3.2,2.91 4.65,7.12 4.65,12.5 0,2.33 -0.44,6.11 -1.6,11.49l-10.32 48.56 -12.8 0 10.47 -49.73c0.87,-4.07 1.31,-6.98 1.31,-8.72 0,-2.47 -0.73,-4.51 -2.33,-5.81 -1.6,-1.45 -3.78,-2.18 -6.69,-2.18 -3.78,0 -7.7,1.16 -11.63,3.49 -4.07,2.33 -7.13,5.24 -9.31,9.02 -2.33,3.78 -4.22,9.6 -5.81,17.3l-7.71 36.64 -12.8 0 10.61 -50.89c0.87,-3.49 1.17,-5.82 1.17,-7.42 0,-2.33 -0.73,-4.36 -2.33,-5.81 -1.46,-1.6 -3.49,-2.33 -5.96,-2.33 -3.64,0 -7.42,1.16 -11.49,3.49 -4.07,2.33 -7.27,5.53 -9.74,9.6 -2.61,4.22 -4.65,10.03 -6.25,17.74l-7.41 35.62 -12.8 0z"/>
  <path class="fil0" d="M5148.64 7156.91l12.5 1.16c-1.74,6.25 -5.96,12.07 -12.36,17.59 -6.54,5.67 -14.25,8.43 -23.12,8.43 -5.67,0 -10.76,-1.31 -15.41,-3.93 -4.65,-2.47 -8.29,-6.25 -10.76,-11.2 -2.47,-4.94 -3.64,-10.47 -3.64,-16.72 0,-8.29 1.89,-16.28 5.67,-23.99 3.93,-7.7 8.87,-13.52 14.83,-17.16 6.11,-3.78 12.65,-5.67 19.78,-5.67 9.02,0 16.28,2.76 21.67,8.29 5.38,5.67 8,13.23 8,22.83 0,3.64 -0.29,7.42 -1.02,11.34l-55.69 0c-0.15,1.45 -0.29,2.76 -0.29,3.93 0,7.13 1.6,12.5 4.94,16.29 3.2,3.63 7.27,5.52 11.93,5.52 4.36,0 8.72,-1.45 13.09,-4.36 4.22,-2.76 7.56,-6.98 9.89,-12.36zm-37.52 -18.9l42.61 0c0,-1.31 0,-2.33 0,-2.91 0,-6.4 -1.6,-11.2 -4.8,-14.69 -3.35,-3.35 -7.42,-5.09 -12.5,-5.09 -5.53,0 -10.61,1.89 -15.12,5.67 -4.51,3.78 -7.85,9.45 -10.18,17.01z"/>
  <path class="fil0" d="M5244.21 7156.91l12.5 1.16c-1.74,6.25 -5.96,12.07 -12.36,17.59 -6.54,5.67 -14.25,8.43 -23.12,8.43 -5.67,0 -10.76,-1.31 -15.41,-3.93 -4.65,-2.47 -8.29,-6.25 -10.76,-11.2 -2.47,-4.94 -3.64,-10.47 -3.64,-16.72 0,-8.29 1.89,-16.28 5.67,-23.99 3.93,-7.7 8.87,-13.52 14.83,-17.16 6.11,-3.78 12.65,-5.67 19.78,-5.67 9.02,0 16.28,2.76 21.67,8.29 5.38,5.67 8,13.23 8,22.83 0,3.64 -0.29,7.42 -1.02,11.34l-55.69 0c-0.15,1.45 -0.29,2.76 -0.29,3.93 0,7.13 1.6,12.5 4.94,16.29 3.2,3.63 7.27,5.52 11.93,5.52 4.36,0 8.72,-1.45 13.09,-4.36 4.22,-2.76 7.56,-6.98 9.89,-12.36zm-37.52 -18.9l42.61 0c0,-1.31 0,-2.33 0,-2.91 0,-6.4 -1.6,-11.2 -4.8,-14.69 -3.35,-3.35 -7.42,-5.09 -12.5,-5.09 -5.53,0 -10.61,1.89 -15.12,5.67 -4.51,3.78 -7.85,9.45 -10.18,17.01z"/>
  <path class="fil0" d="M5314.34 7172.03l-2.18 10.61c-3.06,0.73 -6.11,1.16 -8.87,1.16 -5.24,0 -9.16,-1.31 -12.21,-3.78 -2.33,-1.89 -3.49,-4.51 -3.49,-7.7 0,-1.74 0.73,-5.53 1.89,-11.49l9.16 -43.91 -10.18 0 2.04 -9.89 10.18 0 3.93 -18.46 14.69 -8.87 -5.81 27.33 12.65 0 -2.18 9.89 -12.5 0 -8.72 41.73c-1.02,5.38 -1.6,8.43 -1.6,9.6 0,1.45 0.44,2.61 1.31,3.49 0.87,0.73 2.33,1.16 4.22,1.16 2.91,0 5.38,-0.29 7.71,-0.87z"/>
  <path class="fil0" d="M5340.65 7156.62l12.94 -0.73c0,3.64 0.58,6.83 1.74,9.45 1.02,2.62 3.2,4.65 6.25,6.4 3.06,1.6 6.54,2.47 10.61,2.47 5.53,0 9.89,-1.17 12.65,-3.49 2.76,-2.18 4.22,-4.94 4.22,-8 0,-2.18 -0.87,-4.22 -2.47,-6.25 -1.74,-2.04 -5.96,-4.51 -12.8,-7.41 -6.69,-2.76 -11.05,-4.8 -12.94,-6.11 -3.2,-1.89 -5.53,-4.22 -7.13,-6.83 -1.6,-2.62 -2.47,-5.53 -2.47,-9.02 0,-5.96 2.33,-11.05 7.13,-15.27 4.65,-4.22 11.34,-6.4 19.78,-6.4 9.45,0 16.57,2.18 21.52,6.54 4.94,4.36 7.56,10.18 7.7,17.3l-12.5 0.87c-0.15,-4.51 -1.74,-8.14 -4.8,-10.91 -3.05,-2.61 -7.27,-3.93 -12.8,-3.93 -4.36,0 -7.85,1.02 -10.32,3.06 -2.47,2.04 -3.63,4.22 -3.63,6.69 0,2.33 1.02,4.36 3.2,6.25 1.45,1.16 5.09,3.05 10.91,5.67 9.74,4.22 16,7.56 18.46,10.04 4.07,3.93 6.11,8.58 6.11,14.25 0,3.78 -1.17,7.41 -3.49,11.05 -2.18,3.49 -5.67,6.4 -10.47,8.58 -4.65,2.18 -10.18,3.2 -16.57,3.2 -8.58,0 -16,-2.18 -22.1,-6.54 -6.11,-4.22 -9.02,-11.19 -8.72,-20.94z"/>
  <path class="fil0" d="M5467.3 7182.5l15.7 -75.46 11.49 0 -3.2 15.41c3.93,-5.81 7.7,-10.03 11.34,-12.8 3.78,-2.91 7.56,-4.22 11.49,-4.22 2.47,0 5.67,0.87 9.45,2.76l-5.24 11.92c-2.33,-1.6 -4.8,-2.47 -7.42,-2.47 -4.51,0 -9.16,2.47 -13.81,7.56 -4.8,4.94 -8.58,13.96 -11.34,27.04l-6.25 30.24 -12.21 0z"/>
  <path class="fil0" d="M5585.81 7156.91l12.5 1.16c-1.74,6.25 -5.96,12.07 -12.36,17.59 -6.54,5.67 -14.25,8.43 -23.12,8.43 -5.67,0 -10.76,-1.31 -15.41,-3.93 -4.65,-2.47 -8.29,-6.25 -10.76,-11.2 -2.47,-4.94 -3.64,-10.47 -3.64,-16.72 0,-8.29 1.89,-16.28 5.67,-23.99 3.93,-7.7 8.87,-13.52 14.83,-17.16 6.11,-3.78 12.65,-5.67 19.78,-5.67 9.02,0 16.28,2.76 21.67,8.29 5.38,5.67 8,13.23 8,22.83 0,3.64 -0.29,7.42 -1.02,11.34l-55.69 0c-0.15,1.45 -0.29,2.76 -0.29,3.93 0,7.13 1.6,12.5 4.94,16.29 3.2,3.63 7.27,5.52 11.93,5.52 4.36,0 8.72,-1.45 13.09,-4.36 4.22,-2.76 7.56,-6.98 9.89,-12.36zm-37.52 -18.9l42.61 0c0,-1.31 0,-2.33 0,-2.91 0,-6.4 -1.6,-11.2 -4.8,-14.69 -3.35,-3.35 -7.42,-5.09 -12.5,-5.09 -5.53,0 -10.61,1.89 -15.12,5.67 -4.51,3.78 -7.85,9.45 -10.18,17.01z"/>
  <path class="fil0" d="M5676.74 7173.05c-4.51,3.93 -8.72,6.69 -12.8,8.43 -4.22,1.75 -8.58,2.62 -13.23,2.62 -6.98,0 -12.65,-2.04 -16.87,-6.11 -4.22,-4.07 -6.4,-9.31 -6.4,-15.7 0,-4.22 1.02,-8 2.91,-11.19 1.89,-3.2 4.51,-5.82 7.56,-7.71 3.2,-2.04 7.13,-3.49 11.63,-4.22 2.91,-0.58 8.43,-1.02 16.57,-1.45 8.14,-0.29 13.96,-1.17 17.45,-2.47 1.02,-3.49 1.45,-6.4 1.45,-8.72 0,-3.06 -1.02,-5.38 -3.2,-7.13 -3.06,-2.33 -7.42,-3.49 -13.23,-3.49 -5.38,0 -9.74,1.16 -13.23,3.63 -3.49,2.33 -5.96,5.82 -7.56,10.18l-12.94 -1.17c2.61,-7.41 6.83,-13.23 12.65,-17.16 5.67,-3.93 12.94,-5.96 21.67,-5.96 9.3,0 16.72,2.18 22.1,6.69 4.22,3.34 6.25,7.56 6.25,12.94 0,3.93 -0.58,8.58 -1.74,13.96l-4.07 18.76c-1.31,5.96 -2.04,10.76 -2.04,14.54 0,2.33 0.58,5.67 1.6,10.18l-13.09 0c-0.58,-2.47 -1.16,-5.52 -1.45,-9.45zm4.8 -28.79c-1.74,0.72 -3.78,1.31 -5.81,1.6 -2.04,0.44 -5.53,0.87 -10.33,1.17 -7.56,0.72 -12.8,1.6 -15.85,2.61 -3.06,1.02 -5.38,2.62 -6.98,4.8 -1.6,2.33 -2.33,4.65 -2.33,7.42 0,3.63 1.31,6.54 3.78,8.87 2.47,2.33 5.96,3.49 10.61,3.49 4.22,0 8.29,-1.17 12.22,-3.35 3.93,-2.33 7.12,-5.38 9.3,-9.45 2.33,-4.07 4.07,-9.74 5.38,-17.16z"/>
  <polygon class="fil0" points="5720.69,7182.5 5742.36,7078.39 5755.15,7078.39 5733.34,7182.5 "/>
  <path class="fil0" d="M5787.04 7092.93l3.06 -14.54 12.8 0 -3.06 14.54 -12.8 0zm-18.76 89.57l15.85 -75.46 12.8 0 -15.85 75.46 -12.8 0z"/>
  <path class="fil0" d="M5845.54 7172.03l-2.18 10.61c-3.06,0.73 -6.11,1.16 -8.87,1.16 -5.24,0 -9.16,-1.31 -12.21,-3.78 -2.33,-1.89 -3.49,-4.51 -3.49,-7.7 0,-1.74 0.73,-5.53 1.89,-11.49l9.16 -43.91 -10.18 0 2.04 -9.89 10.18 0 3.93 -18.46 14.69 -8.87 -5.81 27.33 12.65 0 -2.18 9.89 -12.5 0 -8.72 41.73c-1.02,5.38 -1.6,8.43 -1.6,9.6 0,1.45 0.44,2.61 1.31,3.49 0.87,0.73 2.33,1.16 4.22,1.16 2.91,0 5.38,-0.29 7.71,-0.87z"/>
  <path class="fil0" d="M5865.75 7211.58l0.73 -12.21c2.61,0.73 5.23,1.17 7.7,1.17 2.62,0 4.8,-0.58 6.4,-1.75 2.04,-1.6 4.36,-4.5 6.83,-8.72l4.07 -7.41 -12.5 -75.61 12.65 0 5.67 37.95c1.17,7.42 2.18,14.98 2.91,22.39l33.73 -60.34 13.38 0 -48.13 85.35c-4.65,8.29 -8.72,13.96 -12.36,16.58 -3.49,2.76 -7.7,4.07 -12.36,4.07 -2.91,0 -5.81,-0.44 -8.72,-1.46z"/>
 </g>
</svg>
